P2
80 60
583
176 174 177 178 184 187 189 187 189 189 195 193 198 197 200 205 203 209 209 213 213 213 209 211 209 196 179 165 156 146 140 136 135 126 117 115 112 114 110 108 106 105 111 113 114 118 118 119 120 121 123 134 134 133 127 131 131 130 127 123 119 111 107 98 88 90 96 95 100 104 105 105 98 97 100 106 111 111 100 100 
180 179 179 183 187 189 189 190 195 189 198 194 202 204 205 206 206 207 211 214 214 214 211 212 208 197 176 166 159 153 145 143 135 130 122 118 114 117 111 112 114 113 112 114 118 114 116 118 124 128 130 135 135 135 132 132 133 133 124 121 115 111 106 102 97 97 103 103 101 104 105 106 100 96 97 105 111 114 96 102 
179 180 181 188 189 188 191 191 193 192 193 195 201 203 205 205 206 204 207 211 212 211 209 211 209 195 177 165 157 151 141 135 133 130 119 115 116 116 112 115 108 112 116 116 118 117 119 117 117 123 129 136 136 135 132 131 130 128 122 119 116 113 106 102 97 101 105 108 106 104 103 102 102 97 99 103 106 106 97 96 
175 178 182 188 188 187 190 191 191 192 195 195 199 198 200 205 206 209 208 211 211 211 207 211 206 194 180 162 153 153 139 136 129 124 119 117 114 113 113 115 114 113 116 114 120 117 118 115 119 124 127 133 134 128 130 128 129 131 122 121 112 107 113 102 100 102 103 107 105 102 101 103 97 95 96 99 105 105 97 94 
173 174 182 184 185 189 190 190 192 192 193 194 196 201 203 204 206 206 208 211 211 207 208 207 204 195 176 165 156 150 139 133 128 121 117 117 113 113 108 112 111 109 110 111 116 116 117 113 116 122 123 129 129 125 129 129 126 125 119 117 112 112 108 102 100 101 102 104 104 101 101 100 97 95 92 93 95 100 96 93 
174 178 175 184 187 188 186 190 190 188 191 193 197 197 198 200 204 202 205 208 205 207 205 207 205 193 174 157 151 148 137 131 128 121 116 111 115 109 108 108 109 106 105 107 111 111 116 114 114 119 120 125 125 124 121 126 124 119 116 116 110 107 106 98 100 103 94 101 102 99 94 95 95 93 90 86 87 92 86 89 
175 176 180 181 185 185 181 185 183 187 192 191 192 195 198 201 199 202 203 206 209 207 202 207 207 191 169 158 151 145 134 130 127 117 112 110 109 106 103 108 103 101 101 111 109 109 113 111 114 118 120 123 123 119 119 123 118 114 110 111 110 104 102 94 96 99 94 97 104 100 91 96 92 88 91 81 85 82 76 85 
176 175 181 185 185 187 186 188 188 189 189 183 189 192 196 200 195 198 200 205 208 202 199 204 202 187 170 153 147 140 127 129 121 113 110 104 102 103 104 107 104 105 105 106 109 105 109 107 110 117 115 120 120 121 118 116 114 112 107 109 107 100 101 91 92 97 94 99 102 101 92 91 87 85 88 79 78 79 68 79 
178 178 179 181 184 176 179 184 182 186 183 186 189 192 194 196 199 200 202 200 205 202 202 202 202 185 167 152 145 137 131 125 120 118 107 105 104 103 100 101 101 100 101 102 106 106 109 104 108 114 114 117 117 119 113 115 111 113 105 102 103 100 97 90 85 91 94 97 100 98 92 89 84 83 81 75 79 76 69 80 
174 178 177 183 184 183 178 183 185 186 187 184 187 192 191 196 195 198 199 200 203 203 201 195 197 183 168 152 144 135 129 126 119 115 106 103 100 99 98 100 100 100 101 101 103 102 101 99 105 110 113 116 117 116 112 112 112 112 101 97 97 96 89 85 92 93 91 97 99 103 90 88 85 85 82 81 82 74 67 69 
171 180 177 183 182 182 180 181 182 184 188 185 189 190 191 194 196 197 196 201 201 198 194 195 195 181 165 150 140 137 128 125 118 109 102 99 99 97 94 98 97 97 100 98 102 101 100 100 101 102 110 114 115 110 108 108 108 109 100 98 93 91 84 82 87 95 90 97 97 96 90 88 86 84 80 81 79 76 69 66 
170 172 174 180 181 180 179 181 181 182 183 183 181 191 185 194 192 194 196 196 196 198 194 194 194 178 160 148 139 131 124 121 115 108 101 98 96 96 96 94 94 96 94 97 99 99 101 100 103 103 106 110 119 113 111 108 109 107 103 98 88 88 76 77 80 89 88 91 98 98 93 90 87 85 80 83 82 79 67 71 
166 172 174 179 180 179 176 183 181 183 182 183 184 188 189 192 190 193 194 196 198 196 195 194 195 180 162 146 140 131 120 118 114 107 103 97 95 98 96 99 99 98 97 98 101 101 99 99 105 109 113 115 115 112 112 113 107 104 97 98 84 83 76 78 77 88 89 95 99 97 94 94 89 88 85 83 83 79 72 68 
163 168 174 178 181 176 178 177 177 177 183 181 185 183 184 190 188 192 191 197 200 197 195 192 194 183 158 149 142 133 125 118 116 114 106 106 106 103 105 107 108 105 105 104 105 108 107 106 108 111 115 120 124 117 118 113 111 108 97 90 83 81 81 76 70 86 89 96 100 101 98 97 96 93 88 87 83 80 75 72 
157 165 170 175 179 173 177 174 180 181 185 182 184 185 190 192 193 193 190 198 199 203 199 199 199 185 167 154 147 143 133 132 128 121 117 114 115 110 112 114 111 109 111 111 114 110 106 104 110 114 118 118 118 118 116 111 108 101 94 89 83 85 87 79 68 80 85 92 99 102 99 104 101 98 95 90 89 83 78 78 
157 169 173 173 177 178 179 181 183 186 187 188 188 194 192 200 197 200 203 206 208 210 205 209 211 194 175 164 155 148 136 136 133 128 124 122 123 117 117 117 117 114 112 112 113 114 109 107 110 112 115 118 120 118 113 114 107 99 94 96 91 93 92 82 69 80 90 93 100 102 103 106 106 105 101 98 95 87 79 83 
165 170 172 179 182 183 187 186 187 192 194 197 196 198 200 206 205 205 208 212 214 213 211 214 208 198 174 165 156 152 143 139 135 129 126 121 122 116 116 122 117 114 117 113 113 111 113 109 109 114 120 121 120 116 113 110 107 106 99 100 97 91 88 87 77 81 87 99 101 104 105 106 107 108 105 99 94 94 80 86 
173 177 184 189 192 194 193 195 194 200 197 201 201 204 204 204 207 209 209 214 215 215 210 216 212 198 178 167 157 151 143 136 137 135 128 134 133 127 117 113 113 115 116 115 112 112 110 109 109 113 115 118 119 118 114 113 111 109 104 103 97 91 89 88 82 85 85 90 100 103 102 104 105 107 104 100 96 98 85 84 
182 184 191 194 196 198 198 200 198 203 202 205 203 201 199 206 208 208 210 212 213 210 210 211 214 200 182 165 161 148 143 145 150 154 157 188 189 183 156 126 121 117 114 111 110 111 109 105 110 117 114 116 118 117 115 116 115 118 109 102 98 94 91 90 89 89 83 93 100 101 101 103 108 103 106 97 95 93 86 86 
183 189 191 199 202 200 200 194 197 200 199 198 199 202 201 206 207 207 211 210 208 208 208 215 216 198 177 165 157 153 146 161 186 206 203 226 245 246 235 195 147 125 119 117 113 113 111 108 112 111 113 118 120 119 119 120 118 118 113 112 104 100 95 97 93 97 86 92 101 99 102 104 105 109 102 95 95 92 82 84 
188 191 193 195 197 197 196 196 198 195 195 195 196 202 199 203 198 202 203 206 210 209 209 210 212 196 180 164 156 150 160 184 220 233 254 264 272 285 282 270 244 202 156 127 121 113 112 109 111 116 119 122 122 120 122 119 125 124 122 119 112 103 97 97 95 93 85 91 97 99 94 97 98 100 99 97 92 89 87 87 
189 188 198 197 195 195 191 194 195 196 195 194 194 200 197 201 198 200 200 204 209 211 207 212 211 197 180 167 155 154 160 213 262 290 308 310 308 319 328 319 304 301 284 201 142 123 113 117 118 118 121 128 129 127 128 129 133 134 125 121 116 105 104 104 101 99 85 91 96 100 93 94 96 97 98 97 99 92 87 87 
186 190 190 196 193 194 191 193 189 190 192 194 191 194 194 197 199 201 200 205 207 209 208 209 208 198 181 167 159 158 176 278 325 345 358 374 366 373 390 392 370 362 355 338 253 179 133 126 124 124 126 125 130 129 133 130 138 138 130 125 110 104 105 106 104 104 92 89 91 96 88 87 93 95 99 96 97 97 87 93 
185 191 190 192 194 192 190 192 190 193 192 194 194 196 194 195 198 201 204 207 209 212 208 210 209 197 178 168 164 171 263 366 406 428 446 459 459 455 466 487 472 447 435 420 387 320 191 138 129 126 125 128 131 133 136 136 141 137 132 127 112 110 109 106 106 102 91 88 87 93 92 94 91 93 97 95 101 97 86 89 
185 191 192 194 193 193 191 191 191 196 192 193 197 197 196 200 202 205 204 209 207 212 204 211 210 198 179 175 185 261 395 459 500 514 523 527 532 527 531 534 534 528 518 507 491 431 317 166 137 134 133 137 136 139 142 140 141 141 135 132 118 110 109 108 101 103 93 91 90 93 89 87 89 95 97 97 98 97 84 86 
189 192 195 197 195 193 195 193 193 194 194 191 196 197 199 203 205 205 203 207 207 211 210 212 213 199 184 189 282 410 488 521 528 529 532 530 528 532 528 529 529 528 514 516 510 482 428 283 166 144 140 140 143 142 143 142 143 147 144 140 125 112 107 107 102 101 92 88 92 89 88 95 93 96 99 99 98 98 86 90 
189 194 195 195 197 191 191 189 192 190 195 195 197 197 203 201 203 201 204 207 207 207 209 209 206 198 192 257 400 495 526 529 533 537 538 527 525 530 530 527 528 524 513 513 510 500 488 430 294 172 149 147 150 144 144 147 152 154 156 155 126 116 106 105 99 102 94 95 91 91 92 90 94 92 95 92 100 97 83 81 
190 188 191 194 197 187 187 190 184 189 189 193 193 197 199 202 199 199 201 201 206 206 209 211 211 202 219 368 487 521 529 539 544 546 539 533 532 534 529 534 534 529 524 522 517 513 506 486 419 262 162 151 152 144 150 150 151 161 167 171 136 119 105 100 100 99 93 95 94 93 91 90 95 96 95 94 96 94 82 89 
186 187 187 191 193 187 188 186 188 186 191 194 193 195 197 202 201 201 206 201 204 207 208 210 212 222 321 468 531 532 535 546 548 545 543 535 537 537 535 534 532 535 527 524 524 515 512 504 486 399 212 164 155 145 149 152 158 170 178 182 144 122 106 103 100 100 93 99 98 95 91 97 98 97 93 96 97 92 84 88 
185 188 187 191 192 192 188 189 190 190 194 195 192 196 197 195 197 199 206 206 210 208 208 211 212 251 419 530 536 540 537 538 544 541 539 536 539 537 537 535 540 538 532 531 528 519 517 505 503 478 324 176 153 149 146 156 160 175 186 184 150 128 108 105 100 97 97 100 94 95 90 93 96 97 97 95 97 93 89 83 
186 187 184 192 194 190 191 187 186 186 189 191 192 193 197 196 196 197 202 202 205 208 209 211 226 342 485 550 541 538 526 530 534 530 524 528 541 544 546 544 549 544 536 531 522 519 509 500 497 489 410 211 159 145 143 152 162 173 182 184 152 133 112 108 101 103 98 101 102 98 95 96 97 98 96 95 96 94 88 86 
185 184 189 193 190 194 190 187 187 184 187 187 186 191 190 192 194 195 198 201 202 202 202 210 255 406 507 549 541 528 521 525 542 539 534 526 541 541 545 548 552 551 536 528 514 506 493 482 482 478 445 256 159 143 142 150 153 158 165 180 153 132 113 107 104 104 99 104 101 97 92 95 96 99 98 102 97 96 88 86 
182 181 182 189 189 190 189 185 178 179 186 182 183 187 185 188 186 185 195 202 198 198 201 215 311 449 512 542 536 523 534 550 565 566 563 558 562 552 549 542 550 561 553 550 546 534 528 496 474 464 458 311 163 143 138 135 137 139 149 172 162 132 120 106 102 104 100 103 104 98 94 94 99 99 99 100 99 95 88 90 
177 177 183 185 190 189 186 182 181 180 181 180 180 179 179 182 185 188 191 196 200 203 199 217 342 473 527 546 525 537 553 558 568 566 568 576 577 563 538 533 539 561 571 571 566 554 544 528 507 474 458 351 163 129 118 111 108 101 132 158 167 138 119 111 104 103 99 102 100 100 98 96 93 98 99 103 100 94 87 90 
174 171 177 179 187 182 182 179 176 177 178 176 180 178 179 183 180 183 189 193 197 199 198 221 362 488 540 544 547 554 552 541 539 544 561 574 583 574 530 523 524 555 582 574 561 546 540 533 520 501 467 358 148 104 95 91 84 82 113 150 163 142 125 114 102 100 97 101 101 102 96 91 92 96 98 101 101 99 89 94 
168 169 175 178 181 181 184 181 176 174 177 174 174 178 181 183 183 185 189 191 194 197 198 217 375 503 541 545 562 562 536 529 526 536 556 571 580 565 532 519 524 535 571 568 555 528 512 508 524 518 492 372 147 97 88 87 85 88 115 142 162 144 129 114 99 97 96 99 103 103 97 92 93 98 101 104 102 95 89 91 
170 165 167 172 170 173 172 174 170 169 174 170 171 168 170 173 172 174 174 179 182 186 183 210 381 511 541 553 570 565 532 534 538 546 556 560 561 545 520 523 522 525 544 555 547 528 520 499 520 538 509 389 143 97 90 89 88 87 113 131 149 144 124 113 106 104 96 99 100 101 95 92 96 96 100 101 102 97 83 92 
162 162 161 163 163 161 157 158 154 158 157 157 154 156 155 161 158 161 164 165 169 175 174 197 384 516 539 553 558 557 561 563 572 565 565 557 557 538 526 525 521 524 529 554 556 550 549 542 542 537 518 415 160 95 90 88 85 91 105 129 150 158 134 118 105 99 97 98 103 101 101 96 92 96 99 101 99 99 89 92 
147 146 147 146 146 148 142 144 145 143 145 142 143 145 146 150 156 153 159 160 167 170 168 198 390 531 542 558 551 554 568 568 569 567 567 559 531 521 523 526 526 529 528 540 561 557 554 551 550 533 519 440 176 100 93 87 83 86 101 122 145 162 140 123 108 101 96 97 103 102 102 101 92 95 98 102 103 100 89 91 
138 135 136 138 138 139 138 139 138 137 136 136 138 140 143 147 151 149 157 164 166 168 165 200 415 542 557 559 554 571 570 570 570 570 577 541 513 497 513 528 523 523 520 525 561 570 556 556 554 541 524 462 206 110 90 83 81 89 98 114 132 155 148 125 112 101 95 97 101 98 100 100 97 85 95 99 101 97 87 91 
132 133 132 133 131 133 136 136 135 133 137 134 136 138 140 148 145 150 153 157 162 166 174 250 467 547 563 555 564 567 568 570 571 577 578 547 522 468 484 524 525 513 513 543 567 577 564 554 559 551 542 495 359 146 86 76 69 84 89 102 123 149 155 125 112 105 94 96 99 101 98 100 97 96 95 94 98 98 84 92 
129 128 129 130 130 128 130 131 133 133 136 132 133 135 137 138 141 147 150 154 160 163 185 366 515 559 561 560 568 569 567 569 575 574 561 552 549 534 523 531 536 543 551 561 566 575 575 559 554 550 546 524 455 212 77 62 70 81 84 95 116 141 154 128 108 104 92 93 98 97 95 101 101 94 92 90 95 93 84 84 
127 126 128 131 130 127 130 130 132 129 131 130 131 130 133 143 140 144 148 154 158 164 205 401 512 558 568 564 564 567 568 574 576 563 544 531 523 515 516 532 539 535 533 553 558 562 571 567 559 557 551 541 474 238 76 62 71 81 84 92 105 131 152 138 118 106 97 97 97 100 102 99 98 91 87 90 93 89 86 90 
122 119 124 128 130 127 125 123 124 125 124 124 130 134 134 141 138 143 143 147 151 158 203 409 520 561 575 569 563 570 571 581 571 548 530 520 514 506 509 520 530 522 525 529 540 547 565 575 565 553 550 546 495 249 70 65 75 82 80 90 98 124 147 149 122 106 94 97 98 97 96 96 95 96 89 86 90 90 82 83 
109 112 115 119 119 115 119 121 120 121 120 122 124 124 125 127 131 137 139 141 143 154 203 423 527 557 575 571 567 576 576 576 562 533 521 517 514 507 504 516 529 528 530 533 541 540 551 572 572 557 550 544 506 257 75 68 79 80 85 85 93 120 145 150 121 104 95 98 97 95 95 95 94 95 93 86 83 83 79 84 
96 96 101 105 110 111 111 112 114 113 115 115 113 115 118 125 124 127 135 142 139 147 200 433 521 546 557 564 571 573 574 566 543 519 515 509 506 501 498 503 510 516 524 530 536 532 543 551 568 564 553 542 497 254 77 73 76 76 74 83 90 114 135 153 135 108 98 94 97 94 90 92 93 90 87 85 85 83 78 77 
89 90 95 97 102 107 106 107 109 109 112 110 112 115 118 120 126 129 130 133 140 151 205 423 521 548 562 566 572 575 565 551 534 520 511 505 509 495 491 490 505 505 507 508 515 527 536 540 559 570 555 538 492 261 72 74 75 74 74 82 86 104 129 150 140 118 100 98 92 90 87 91 88 88 89 85 82 79 73 73 
79 77 84 85 92 94 104 101 105 104 106 104 106 111 112 113 119 121 127 131 135 147 196 406 510 547 563 565 567 574 565 550 540 539 504 482 470 447 443 449 472 478 477 466 494 526 540 550 562 569 557 540 494 221 74 71 79 75 75 82 84 98 119 144 145 120 104 98 93 91 86 89 89 87 90 88 83 83 72 73 
64 61 65 64 70 75 87 90 90 90 95 91 89 94 94 102 104 106 108 114 118 119 161 364 494 547 573 567 560 568 566 558 551 554 502 473 471 466 456 448 446 456 474 472 500 540 553 557 560 562 560 540 492 204 75 70 79 71 70 77 80 90 111 138 147 127 108 101 99 94 89 89 88 88 90 84 81 82 76 74 
61 57 58 55 61 62 71 74 77 74 78 78 78 83 85 91 92 91 93 97 102 116 141 300 457 533 563 562 557 567 566 563 552 534 529 489 468 450 457 467 447 446 457 479 527 542 542 559 564 558 555 548 483 193 74 71 78 71 73 78 73 83 99 126 142 135 107 101 98 92 87 91 91 91 93 87 86 82 74 73 
58 59 61 56 59 59 61 67 66 61 70 71 72 76 80 84 90 93 96 95 100 110 131 210 384 499 560 562 552 557 561 564 559 549 527 511 502 491 490 488 484 482 487 501 524 544 551 560 567 560 546 548 451 138 66 64 69 67 67 72 73 82 101 119 137 138 112 113 103 99 89 90 91 91 92 94 87 81 76 78 
66 62 63 60 60 52 54 58 69 63 66 67 72 71 75 78 82 92 94 100 94 100 113 138 195 399 538 560 548 551 556 566 559 557 538 527 525 523 526 531 530 531 533 530 530 542 559 561 565 552 540 545 386 87 57 62 66 68 64 67 72 82 97 118 134 144 121 111 108 93 90 90 92 93 95 91 90 87 76 78 
64 59 57 57 56 47 48 53 57 61 66 66 67 69 72 71 72 78 87 94 94 99 100 113 140 310 501 554 554 551 552 563 566 556 544 532 528 530 532 534 538 540 539 536 539 551 563 567 559 550 538 537 290 51 48 60 66 66 68 69 74 81 95 111 130 141 128 117 112 96 88 92 93 95 92 94 91 86 74 78 
63 58 49 47 47 42 43 39 53 62 59 58 56 58 62 65 73 67 74 86 90 90 88 100 113 220 450 543 550 535 542 545 560 561 548 539 540 538 539 545 551 548 544 547 545 550 555 556 549 539 530 499 177 32 41 55 66 69 70 68 73 82 89 105 120 142 129 119 112 97 91 91 96 96 93 92 95 93 79 80 
50 53 43 38 38 36 34 37 39 53 55 55 60 60 64 71 70 75 77 88 89 93 94 100 116 164 377 513 545 524 529 534 555 551 551 550 545 545 548 550 556 556 558 558 555 551 551 548 543 534 512 409 104 27 39 63 66 68 69 70 74 80 87 103 121 133 135 126 113 96 95 92 97 96 94 96 97 92 78 79 
55 51 50 45 48 46 44 45 50 59 63 65 70 72 80 79 78 80 86 99 105 109 110 116 117 141 301 479 531 521 512 530 537 540 547 550 552 552 552 555 560 562 560 561 554 546 541 538 539 521 499 283 69 20 27 61 66 73 70 72 77 82 89 101 113 129 137 126 116 106 95 94 96 94 95 99 97 92 76 80 
59 57 56 53 60 61 59 66 64 72 78 85 83 80 94 95 94 101 104 112 112 119 116 128 131 148 290 471 520 523 502 510 532 530 545 551 555 552 547 555 560 564 565 560 558 549 541 529 522 501 450 164 48 17 22 60 66 73 71 72 76 84 91 102 115 133 136 130 117 105 96 92 94 95 94 92 94 89 80 79 
77 65 66 65 72 73 79 82 81 86 94 98 104 103 105 112 112 117 124 128 134 136 130 135 142 163 339 477 502 516 497 495 516 524 534 542 550 547 546 553 562 556 557 553 554 541 525 519 499 491 333 103 45 19 12 59 72 77 76 76 76 88 90 96 110 133 140 136 124 111 101 100 100 98 97 96 95 93 81 82 
92 83 73 75 85 85 89 94 93 101 110 110 115 114 122 123 125 131 137 146 149 152 155 160 166 203 413 506 515 510 510 480 488 500 511 523 537 539 546 548 557 555 553 548 547 536 524 499 484 460 184 76 45 20 6 55 70 76 74 77 79 89 92 98 111 136 143 141 129 118 105 101 102 99 96 97 97 93 84 83 
114 98 96 87 83 77 89 91 92 105 107 110 113 124 127 143 146 170 200 225 252 273 284 307 333 385 496 543 538 534 517 505 485 485 498 516 534 539 539 545 548 539 540 541 528 517 499 485 500 350 116 64 41 23 0 44 68 68 71 73 75 82 90 102 113 128 142 143 138 118 100 97 96 101 88 87 89 82 66 83 


