P2
80 60
356
183 186 184 188 191 190 191 192 187 187 192 186 189 192 188 189 186 185 188 187 181 179 173 173 168 168 165 165 156 146 136 137 134 134 131 127 123 120 118 114 101 104 102 102 98 97 85 78 75 75 63 62 59 61 61 69 81 86 90 87 81 83 83 79 87 100 105 92 60 57 68 69 69 66 66 62 61 52 42 48 
186 185 184 188 187 190 193 193 192 189 190 188 188 189 186 190 188 187 185 184 182 181 173 170 170 170 169 167 163 158 145 135 134 132 128 126 123 118 119 118 112 110 103 101 99 99 90 77 80 78 74 73 68 65 65 66 70 80 81 84 83 81 82 79 76 90 97 71 52 50 65 67 68 67 65 61 55 48 44 44 
184 182 182 183 187 185 190 188 189 188 191 188 191 186 182 187 186 181 179 184 178 173 172 174 170 168 170 169 168 166 159 144 133 131 131 126 126 120 120 123 117 112 108 105 101 101 99 84 74 74 73 69 74 72 61 64 65 66 75 79 82 80 80 77 72 75 83 63 48 45 53 60 66 65 63 56 54 44 38 38 
181 183 182 180 181 184 187 184 185 186 192 185 186 186 185 181 179 179 180 179 178 175 175 174 170 168 169 164 163 168 161 154 144 140 134 129 125 119 123 121 118 118 115 108 105 107 103 94 79 76 76 77 73 76 64 58 61 66 68 72 75 76 77 73 70 68 67 60 51 39 41 50 58 59 58 53 44 34 36 42 
186 184 184 184 181 183 187 180 182 184 184 185 185 187 185 186 178 180 177 175 177 175 176 173 174 170 168 166 165 165 161 159 154 149 139 132 127 121 122 117 118 117 115 112 105 104 103 99 87 76 73 73 72 77 70 67 60 62 62 63 72 74 75 71 68 63 66 64 52 40 38 37 44 48 44 42 43 43 47 52 
181 185 181 181 181 179 184 183 181 180 182 184 184 183 180 184 182 178 183 172 171 173 174 174 172 173 170 165 168 163 162 157 154 155 150 141 132 122 120 120 116 114 114 110 111 105 101 95 93 87 80 79 73 75 69 69 64 62 64 61 66 72 79 67 64 63 62 58 56 43 35 27 27 35 45 49 56 55 57 53 
181 183 188 183 182 182 184 181 183 181 184 181 181 184 181 184 183 177 177 178 171 167 168 172 171 172 171 168 164 160 159 158 156 155 153 147 140 129 120 118 114 111 109 109 109 111 104 98 91 92 85 84 80 73 72 68 68 70 65 63 61 63 68 64 57 56 60 54 48 37 34 36 48 55 62 63 63 56 50 49 
177 179 182 180 184 183 184 178 180 182 182 179 179 179 181 182 177 175 177 178 173 162 163 166 170 167 170 169 163 162 161 158 154 151 149 147 145 137 129 120 111 112 110 109 108 106 107 101 95 90 88 88 81 81 73 71 62 66 67 65 56 55 61 57 48 52 49 49 46 45 59 60 67 68 64 57 51 45 36 45 
169 178 174 177 181 177 181 181 178 181 181 180 176 177 177 181 177 172 174 174 169 164 167 167 169 166 162 159 162 162 158 153 152 152 146 145 144 141 137 129 114 111 109 107 104 105 103 103 97 89 90 84 81 85 74 69 64 65 70 63 51 47 48 45 40 38 47 53 65 67 73 71 65 57 49 47 49 41 42 45 
164 167 169 170 177 178 179 181 179 183 183 180 177 176 178 179 176 174 172 169 171 163 167 163 164 163 163 161 161 159 158 157 153 152 147 145 143 141 137 137 125 121 113 105 104 106 99 97 96 92 90 87 83 82 81 74 63 68 66 63 56 47 46 39 42 54 67 78 80 76 64 56 49 47 45 47 50 45 45 45 
156 159 157 163 165 168 174 177 178 179 180 178 177 175 175 176 172 170 171 167 164 164 165 165 164 160 160 155 158 158 157 153 150 149 145 143 140 140 137 134 130 128 119 108 104 103 99 99 93 91 92 88 81 80 79 75 71 65 67 65 62 57 51 52 63 73 74 75 67 57 53 51 47 47 53 50 57 53 49 49 
152 152 149 152 156 163 162 167 168 174 174 176 177 173 169 172 170 168 165 163 162 159 161 162 159 156 159 157 157 151 154 151 149 146 145 144 139 137 135 134 132 135 131 118 107 101 97 95 94 89 89 87 82 80 75 75 73 69 68 65 64 62 65 70 67 67 65 66 60 55 51 51 54 54 61 56 63 58 55 56 
147 145 150 147 148 153 158 157 159 168 172 170 172 167 167 170 168 164 164 164 161 158 156 159 157 157 160 159 158 151 146 145 147 141 145 140 137 137 138 135 134 133 129 125 117 105 95 93 93 90 91 85 83 79 74 75 68 72 67 66 69 68 74 71 65 62 62 63 63 55 56 58 60 64 65 63 65 60 63 62 
143 146 143 143 143 144 148 146 145 148 162 164 165 162 160 167 162 163 161 159 154 157 154 155 154 156 151 155 152 152 150 141 140 142 144 140 138 142 137 137 133 130 132 126 125 117 102 95 92 89 88 87 86 84 78 78 75 74 71 71 71 69 73 68 65 64 64 65 67 62 70 68 72 69 71 72 78 77 70 77 
142 144 144 143 143 143 144 142 142 145 146 153 155 159 158 162 162 159 156 160 155 158 156 159 154 153 155 154 152 153 146 143 140 142 139 141 140 140 139 137 129 127 128 123 123 121 110 102 96 89 88 83 85 86 83 81 74 73 72 72 68 69 70 67 66 65 68 70 74 72 70 77 76 80 84 84 89 84 79 77 
141 140 143 143 143 140 144 140 140 142 138 140 146 148 150 156 155 156 159 156 156 158 157 158 154 151 153 151 153 153 149 147 145 143 141 136 138 138 137 134 133 131 129 123 120 120 117 113 104 92 89 87 86 85 81 83 75 76 74 69 72 70 69 67 67 68 72 71 73 73 81 85 86 90 94 91 92 92 85 85 
138 137 138 139 140 138 140 138 140 137 139 137 138 134 136 140 147 151 153 153 154 149 156 155 153 152 151 148 152 152 149 148 148 141 139 136 134 130 133 133 130 129 129 122 121 118 118 115 113 110 92 89 88 89 84 88 82 80 73 72 72 70 69 68 70 70 71 74 80 85 93 94 95 96 95 96 97 91 85 82 
139 139 141 139 139 138 141 135 138 139 137 136 138 129 127 127 136 143 146 146 151 151 152 152 154 149 149 150 151 154 155 149 148 150 141 135 132 129 130 128 128 129 129 121 121 123 119 116 115 117 109 100 92 91 90 83 81 83 79 72 72 72 77 72 70 74 76 72 78 83 92 91 92 98 97 96 96 90 83 81 
135 137 139 139 139 136 138 134 136 135 136 135 134 128 124 125 129 130 134 139 138 141 143 147 150 149 149 150 151 154 154 160 158 153 146 136 130 128 128 126 124 126 127 121 120 122 113 112 115 121 116 107 98 94 85 88 86 84 83 81 75 73 75 66 76 74 77 75 82 83 91 95 94 93 91 84 85 82 81 78 
135 137 137 137 136 136 135 130 131 136 135 137 129 129 125 126 125 126 128 124 128 133 138 146 148 145 148 152 152 157 159 168 177 173 159 138 130 129 129 125 122 123 129 122 123 123 120 117 117 118 116 114 110 104 94 91 88 87 84 81 81 75 75 73 75 74 77 79 80 79 88 91 91 88 82 84 80 79 79 80 
133 135 134 133 137 134 136 132 132 134 132 126 127 125 123 122 122 121 119 122 121 123 130 136 142 145 144 145 150 158 161 191 215 220 193 150 135 126 126 124 122 126 126 120 120 120 117 120 115 122 116 115 112 114 103 93 88 87 87 85 86 80 79 71 71 73 77 79 81 78 78 75 84 81 81 81 75 70 76 74 
131 135 133 132 132 131 132 130 129 134 132 126 126 125 123 121 120 119 120 118 121 120 124 129 133 136 142 143 148 149 168 235 344 356 274 179 137 132 130 130 122 126 126 119 119 118 117 117 116 123 119 117 113 115 115 108 96 90 86 80 83 83 82 78 78 79 82 80 83 76 75 78 71 71 73 66 47 30 49 65 
128 131 131 130 132 127 128 129 124 126 132 124 122 122 122 120 115 117 118 118 118 115 121 117 120 124 128 128 128 142 173 285 348 316 338 235 151 137 130 129 125 124 124 122 118 117 115 118 120 122 120 118 111 113 112 110 106 96 89 88 82 85 87 83 79 85 89 82 79 71 68 73 73 66 60 51 34 10 7 35 
129 131 133 128 131 126 130 125 127 126 128 124 120 121 119 116 112 115 118 115 115 118 119 118 119 115 119 119 121 129 158 279 319 269 295 297 170 137 130 129 122 124 120 119 119 116 114 118 114 119 118 115 115 116 111 111 109 107 97 86 82 85 88 84 85 83 86 79 77 69 69 73 71 69 58 45 37 17 0 4 
124 130 130 130 124 126 127 124 128 125 127 122 119 120 118 120 117 116 119 116 115 115 115 116 116 112 111 112 110 116 129 234 321 274 287 315 186 137 130 127 119 120 123 118 115 121 113 116 116 120 116 118 115 114 111 116 110 113 109 94 87 86 90 88 81 83 84 81 76 73 68 72 70 68 57 49 42 29 9 11 
128 131 130 129 125 126 124 125 128 123 126 121 120 119 117 116 116 116 111 109 109 113 116 115 112 110 112 104 102 105 107 159 299 309 304 322 185 136 130 125 119 122 119 117 115 115 115 119 118 117 115 114 115 113 111 114 111 114 111 111 97 88 85 84 81 81 82 82 78 72 73 76 73 68 67 57 59 43 44 49 
128 128 129 125 124 122 125 125 125 125 124 122 122 120 116 116 115 113 113 110 110 107 113 112 110 110 111 104 105 104 101 113 179 303 337 279 155 131 127 121 118 119 122 115 116 115 115 116 117 122 115 114 112 113 111 112 110 111 108 110 109 98 90 83 79 81 83 86 82 78 75 81 78 75 71 74 78 74 76 75 
127 128 129 125 123 120 122 123 121 121 124 121 121 119 114 116 114 111 111 108 108 107 108 108 108 103 101 99 101 99 93 97 105 137 163 153 124 121 121 121 119 118 115 117 112 116 115 114 116 121 114 114 112 113 111 108 111 109 110 106 110 105 94 92 80 83 85 86 85 81 79 80 79 79 76 76 77 75 80 80 
130 129 128 121 118 119 122 120 121 123 122 120 121 115 113 111 111 109 108 105 102 101 105 106 104 103 107 100 101 97 95 96 95 99 103 105 104 108 110 117 116 118 117 116 115 117 112 117 117 117 112 113 111 110 109 110 109 112 112 107 105 104 103 103 92 88 89 91 89 82 81 83 83 81 81 77 82 79 81 81 
124 126 129 124 121 119 121 120 120 120 122 119 119 118 107 101 104 106 110 108 106 104 102 101 99 100 102 102 102 99 96 95 95 97 98 97 98 94 99 104 107 113 116 115 114 114 107 114 111 112 114 111 109 112 109 107 108 111 113 113 109 104 106 110 101 93 96 98 89 84 85 88 88 84 83 85 85 84 84 82 
126 123 125 120 123 118 118 118 116 113 119 115 115 114 110 103 108 107 109 107 103 100 99 102 100 99 103 98 98 98 93 90 91 92 92 92 94 91 89 91 94 99 107 109 108 110 114 109 107 111 108 109 103 107 107 109 110 112 110 112 110 113 110 111 114 101 98 98 103 96 94 92 89 86 85 83 86 84 83 89 
117 124 123 121 120 120 120 117 115 114 116 113 114 113 108 107 105 103 106 107 103 100 101 99 96 97 100 99 99 94 89 90 90 91 93 94 91 89 91 91 88 92 95 93 100 105 109 110 105 106 105 105 106 104 106 109 111 112 112 111 112 114 116 119 123 111 107 108 108 100 97 95 93 90 90 89 87 88 87 87 
117 122 118 114 120 119 119 118 113 110 116 108 111 109 101 103 101 103 108 105 101 99 100 97 98 97 97 99 95 97 92 89 89 90 87 88 88 86 84 83 85 85 88 86 91 95 105 102 104 105 103 104 106 106 105 112 113 113 116 115 115 116 121 123 126 118 113 113 112 107 103 101 95 93 90 87 90 84 83 84 
118 120 120 116 114 120 117 116 112 114 110 108 106 106 102 98 100 100 101 103 101 96 96 99 97 95 99 93 96 92 88 86 84 85 86 88 87 85 85 88 88 86 86 81 84 85 92 93 98 100 102 101 104 105 106 113 113 114 118 116 123 121 122 126 130 123 116 115 114 108 106 102 98 97 89 92 88 88 85 84 
116 116 117 116 115 113 116 112 111 113 112 106 107 107 103 100 96 96 99 99 95 96 96 96 95 93 90 89 93 88 89 84 84 84 86 82 81 82 84 86 81 84 85 81 83 82 81 83 89 89 97 99 103 105 109 116 115 118 115 122 126 125 127 126 131 122 114 115 114 107 105 104 102 100 94 91 93 91 90 90 
115 117 118 114 114 115 117 115 108 109 110 107 106 105 100 102 100 98 98 97 93 96 95 93 96 91 91 92 92 91 84 80 82 82 85 80 85 83 83 82 82 86 85 84 83 83 83 80 82 86 91 97 105 112 115 118 117 118 118 122 122 123 128 130 128 119 119 118 115 109 110 102 101 99 90 97 94 96 92 89 
117 119 117 115 115 112 116 109 108 109 108 102 102 102 99 99 97 93 96 93 93 92 96 94 92 92 88 86 91 89 87 86 83 86 83 83 83 83 81 80 82 85 86 84 79 81 85 83 83 83 88 88 96 111 109 119 119 119 118 117 116 117 126 132 136 131 121 121 119 114 111 108 105 101 97 97 98 95 94 93 
112 116 114 114 110 111 110 109 108 107 106 101 101 98 96 97 97 96 95 94 90 89 95 89 93 91 89 87 88 88 83 80 82 83 78 81 81 77 82 77 81 82 84 83 80 88 82 82 83 87 87 89 91 97 100 115 118 114 116 117 117 121 124 131 140 136 125 122 121 116 115 108 101 100 97 95 95 97 95 93 
115 117 116 114 116 111 108 109 106 106 102 101 97 95 94 94 93 94 96 91 87 89 87 91 91 88 86 85 85 84 82 83 81 81 79 79 73 77 78 81 81 82 81 81 82 85 84 85 85 82 85 91 90 93 97 101 109 114 115 118 117 123 125 131 140 140 125 119 122 115 113 111 104 101 100 95 98 97 92 94 
117 118 112 110 112 106 109 105 105 102 103 101 100 96 94 93 93 94 94 91 86 85 87 87 87 86 84 82 85 82 80 79 79 79 81 80 77 75 77 78 80 82 81 79 82 85 85 87 87 88 88 88 89 95 97 97 100 106 111 115 117 125 128 128 131 138 122 118 117 118 112 108 103 101 95 93 97 96 92 92 
113 112 111 111 109 108 106 109 102 104 100 98 98 93 91 93 94 93 94 91 89 85 87 86 90 84 82 81 80 78 81 77 77 76 78 76 79 76 75 80 81 80 81 79 81 87 87 89 88 92 85 87 92 93 95 97 96 97 100 104 113 122 125 127 128 130 121 113 117 111 109 106 99 101 98 96 100 95 91 94 
112 113 112 108 109 106 107 107 102 100 99 99 96 94 92 90 91 91 91 90 85 88 86 88 84 81 79 81 82 82 73 76 76 82 76 80 78 79 79 81 83 84 81 83 83 87 88 90 90 91 87 90 91 94 90 92 94 98 97 100 102 108 114 116 123 130 115 110 113 106 109 105 99 99 102 99 100 92 93 93 
108 112 112 110 108 106 106 105 100 100 98 96 94 92 90 93 91 90 93 88 88 84 87 84 87 81 80 77 80 81 82 79 77 81 80 82 81 79 82 81 80 87 87 84 86 90 91 91 91 92 91 93 90 92 92 94 97 100 99 99 101 99 103 104 115 124 116 112 110 106 106 101 101 99 97 99 98 94 93 91 
112 108 110 108 108 103 106 102 97 102 97 94 93 91 88 92 88 88 88 87 86 83 85 87 83 81 81 81 82 80 83 79 78 83 84 84 84 81 83 80 80 88 86 86 87 90 92 87 87 87 87 92 90 92 88 94 98 95 97 97 97 100 102 100 103 110 108 108 108 108 107 105 103 104 99 96 98 92 90 92 
113 110 108 101 103 105 108 106 102 102 98 97 90 93 88 89 90 88 89 86 83 83 85 85 84 81 84 82 84 83 83 84 84 82 84 85 84 84 82 81 81 85 84 86 85 88 88 87 86 91 87 90 88 93 89 92 94 97 97 96 94 101 100 102 95 101 105 107 109 106 110 106 100 101 97 96 92 88 92 93 
111 111 108 103 106 103 106 105 103 103 99 96 93 92 90 92 87 86 88 87 80 80 86 84 81 82 80 76 84 83 84 82 82 83 86 84 86 81 81 82 83 86 89 84 80 86 87 86 85 84 85 86 87 87 92 90 93 96 94 94 94 101 101 102 103 105 101 105 113 107 106 102 102 101 98 96 97 89 90 93 
110 113 110 104 107 105 103 103 101 102 99 97 94 96 94 91 90 88 87 86 83 82 83 83 84 84 82 85 86 85 83 84 83 89 89 85 86 87 84 83 85 88 84 83 84 86 86 85 86 88 84 86 90 89 89 93 95 96 97 98 96 101 103 100 100 105 103 102 105 106 106 103 103 100 97 95 94 92 94 93 
108 113 111 109 110 107 106 102 100 98 97 96 95 94 93 91 89 88 89 85 84 82 86 87 85 82 82 84 86 84 86 84 87 88 92 85 86 81 82 86 87 86 85 83 81 87 86 85 85 84 84 85 88 89 87 93 95 97 99 96 100 99 98 99 98 103 105 102 109 104 105 103 102 100 94 96 96 98 98 92 
109 110 111 107 103 104 104 100 99 101 99 94 94 91 93 92 92 89 88 82 84 82 84 83 83 82 82 83 83 84 86 85 87 90 87 89 85 86 83 83 84 83 81 83 80 86 85 87 87 83 86 87 89 92 92 96 97 94 96 97 96 96 98 98 98 101 103 101 104 100 103 97 100 95 96 95 98 94 97 98 
108 111 110 109 105 104 104 100 98 98 97 93 95 92 92 94 89 87 88 85 86 88 84 85 87 84 84 87 85 85 88 86 85 86 85 85 85 84 83 84 84 84 84 82 80 82 84 86 83 81 85 89 90 93 90 96 92 95 95 94 97 95 94 93 98 99 99 103 105 104 102 101 102 101 102 97 99 98 95 97 
112 111 109 106 104 102 101 100 97 95 94 96 91 90 94 91 88 86 89 87 86 90 90 91 91 84 85 83 85 86 88 86 87 87 87 87 85 80 84 82 82 85 85 81 82 83 84 87 89 87 82 86 89 94 94 97 93 92 94 92 92 93 94 89 91 93 97 104 108 103 102 104 102 106 103 99 100 100 99 100 
108 110 108 104 104 101 99 98 99 95 96 92 94 93 92 88 91 90 92 89 89 85 90 93 90 88 84 85 91 89 87 85 82 87 84 84 79 80 85 85 85 86 84 81 83 88 85 85 89 90 87 91 92 96 90 95 94 92 90 92 93 93 94 91 94 96 99 102 109 101 104 102 104 103 104 102 103 103 102 100 
107 114 105 105 104 97 101 101 94 98 97 94 98 94 92 89 92 89 91 88 91 89 91 92 89 89 93 91 93 89 88 82 80 88 86 85 80 81 85 85 87 85 83 83 84 87 88 90 90 87 86 87 94 92 93 91 92 91 92 91 95 96 96 90 95 96 98 100 104 102 110 105 106 104 102 101 105 105 101 102 
108 112 106 103 103 97 102 103 98 98 97 93 93 92 88 93 93 91 94 92 93 88 92 90 92 92 94 94 94 90 91 86 85 89 86 87 83 84 85 85 81 86 89 85 86 91 87 87 90 89 90 90 92 95 93 95 90 92 92 94 93 97 97 93 95 97 102 99 110 100 109 105 107 106 103 99 108 107 106 107 
109 112 107 103 104 100 102 102 98 99 96 95 97 94 93 92 92 91 92 92 93 89 93 88 90 93 93 94 89 88 88 86 89 88 87 89 87 84 81 83 86 87 89 87 88 92 89 90 90 92 92 91 90 94 93 95 97 93 95 97 97 97 97 95 100 97 106 104 108 106 112 106 109 106 106 103 107 106 106 108 
113 111 106 104 105 100 103 102 101 97 98 96 96 95 94 93 94 87 92 92 94 93 91 88 89 93 93 93 91 91 87 85 89 86 86 89 88 85 86 87 90 94 91 87 89 93 92 92 94 90 93 90 92 94 94 94 99 94 98 98 101 95 96 92 97 99 106 106 111 108 109 107 106 105 105 105 109 106 104 105 
120 113 110 108 106 103 104 104 100 100 100 99 98 94 95 98 93 88 94 93 90 92 94 91 90 94 92 91 88 89 84 86 85 88 87 86 89 86 89 89 87 92 92 90 88 91 89 92 92 91 92 90 88 95 97 99 100 98 98 96 98 100 99 97 99 103 111 109 115 108 107 104 107 105 108 102 107 104 106 104 
126 114 110 108 108 105 107 106 102 100 100 102 101 99 95 94 96 93 92 94 94 93 90 90 90 93 89 87 89 87 88 90 87 91 87 87 90 84 90 88 89 92 94 89 88 90 90 93 91 90 90 92 92 95 94 98 100 103 101 102 100 105 104 101 102 104 111 113 119 108 110 104 109 107 106 106 104 103 106 106 
135 117 114 109 108 108 106 106 102 105 101 104 103 101 98 97 95 92 94 95 91 96 95 91 94 92 90 90 94 88 88 90 89 91 86 89 89 86 91 90 90 93 93 90 89 93 95 93 93 94 91 95 95 101 100 104 105 103 105 105 103 105 107 108 105 110 116 115 117 113 113 109 113 108 109 103 108 102 107 109 
144 127 120 113 110 109 107 109 100 106 98 104 103 103 99 92 92 97 95 94 96 97 94 88 94 95 93 92 92 91 87 86 89 94 89 93 91 89 89 96 94 99 97 97 93 94 99 99 97 97 99 99 103 104 103 107 106 105 108 107 106 107 105 108 106 112 125 120 124 114 114 112 120 111 114 110 109 106 104 105 


