P2
80 60
360
178 182 182 186 186 185 185 187 180 184 184 180 182 185 183 186 184 183 183 183 178 175 170 168 166 166 160 158 152 145 134 134 129 126 125 121 120 119 117 112 100 99 99 100 94 92 82 75 78 72 65 59 58 59 58 62 77 80 83 81 80 77 77 76 79 95 98 86 54 53 60 63 63 64 56 58 51 49 36 39 
179 184 180 185 183 185 188 185 184 182 183 184 184 186 184 183 182 182 183 179 180 178 171 166 163 165 165 162 162 157 146 132 129 126 124 122 121 119 117 114 115 103 100 97 95 99 89 74 77 77 71 69 67 64 58 60 62 75 77 81 81 77 77 74 70 81 92 67 47 49 60 64 65 62 59 58 47 49 43 35 
180 180 180 182 179 181 184 186 183 184 185 183 185 187 180 183 180 178 180 178 177 173 172 169 164 165 163 165 164 162 155 141 130 126 125 118 123 120 118 119 114 109 105 100 98 101 97 82 76 73 72 69 71 71 61 58 60 64 71 77 78 74 73 72 69 71 76 56 43 44 47 56 60 60 56 54 45 44 38 38 
177 176 178 179 179 180 183 181 181 181 185 181 184 186 184 180 179 174 177 174 176 177 173 173 168 164 165 163 160 162 156 151 143 137 129 125 123 120 123 119 116 112 113 109 102 103 99 92 81 75 74 74 69 76 63 57 58 63 64 71 70 73 70 71 67 64 63 59 45 40 39 44 52 55 49 47 34 35 37 37 
181 179 182 181 182 180 179 177 177 180 183 181 184 186 181 181 178 175 177 173 173 173 174 170 170 169 165 164 160 164 158 153 150 145 136 128 126 122 119 115 115 111 110 110 105 103 101 97 90 78 70 69 69 75 69 64 59 60 61 63 76 73 73 66 65 61 61 58 47 40 34 31 35 43 42 41 39 47 44 39 
180 178 179 181 178 178 179 177 175 173 177 178 179 181 179 176 180 177 178 171 168 169 170 169 171 170 168 161 161 158 157 154 149 149 145 136 128 125 117 119 113 111 110 108 108 103 98 94 88 88 79 75 70 73 69 66 61 62 59 59 63 68 72 61 62 60 58 56 51 44 34 25 20 33 41 48 51 54 51 48 
178 183 181 179 179 179 179 174 176 176 177 172 178 179 178 181 180 174 176 174 167 168 164 164 168 168 166 165 162 158 155 155 152 147 147 143 139 133 118 117 111 108 107 106 104 108 101 95 89 92 86 82 77 73 70 64 64 72 65 63 59 61 62 56 54 54 52 49 42 38 33 32 44 54 59 60 54 52 45 38 
173 177 177 178 181 180 182 173 174 173 174 171 175 178 178 180 176 172 174 174 169 162 160 160 165 167 166 167 161 158 155 154 149 145 142 141 141 137 130 119 109 107 105 107 106 103 103 98 91 90 87 84 81 80 71 67 62 62 66 61 53 49 54 49 46 45 42 43 39 44 56 59 66 66 54 47 42 44 34 40 
162 171 170 173 175 174 177 174 175 173 176 176 174 174 177 179 176 167 173 171 170 164 165 164 163 162 160 155 159 157 153 152 149 149 144 140 140 142 135 128 114 107 107 105 103 101 101 99 96 89 91 83 81 83 72 67 63 64 65 61 51 44 42 40 35 35 41 54 60 68 73 69 59 49 44 42 38 38 35 39 
158 165 164 167 172 176 175 173 174 178 177 176 174 175 176 174 174 170 169 167 168 165 161 161 158 160 158 160 155 155 153 155 150 147 141 138 139 140 137 131 124 120 109 104 99 102 96 92 96 91 89 86 80 81 78 71 64 63 63 61 54 45 40 37 44 51 60 71 75 73 59 49 42 42 39 45 41 45 39 41 
151 155 152 158 164 166 169 171 171 172 173 173 175 173 171 176 171 168 170 166 163 164 161 160 158 158 155 153 153 153 153 150 145 146 140 139 138 138 135 134 128 126 119 107 101 100 97 97 92 89 89 87 79 80 75 71 72 63 65 65 61 53 46 48 60 69 71 70 59 56 50 49 43 43 44 50 46 49 48 49 
148 148 147 151 150 160 159 164 161 167 167 172 174 173 169 167 167 166 162 160 163 162 157 159 154 152 156 154 152 147 147 147 144 143 140 139 137 135 137 135 132 131 128 119 103 103 95 91 93 87 88 86 80 79 75 71 73 67 66 63 64 60 59 67 67 66 63 61 56 57 48 48 49 52 54 55 59 55 51 50 
144 146 145 144 146 150 150 149 155 159 164 165 165 169 166 168 167 164 161 163 158 156 155 156 156 156 155 155 155 151 146 144 143 138 138 133 136 138 139 132 135 134 127 126 114 104 95 91 93 91 90 84 82 78 76 71 66 68 67 63 67 65 71 69 65 61 56 59 57 52 56 58 58 58 57 60 60 60 65 61 
141 142 140 142 140 143 143 141 141 144 157 158 158 159 158 163 161 161 159 158 156 155 154 153 149 153 152 152 150 146 150 139 136 139 138 137 137 141 138 134 130 127 128 124 122 115 103 93 92 87 89 84 83 85 76 75 73 70 70 69 68 65 66 66 67 60 59 59 63 66 66 66 65 65 67 71 70 77 70 66 
139 139 139 141 140 140 138 136 137 137 140 146 151 154 154 160 159 156 156 157 155 155 155 155 151 149 151 149 148 146 146 140 137 137 134 134 141 141 140 134 127 125 126 123 119 119 110 102 95 89 91 85 84 85 82 77 72 72 69 69 68 66 68 63 64 63 62 66 67 70 70 73 72 73 78 81 80 82 79 69 
136 140 140 141 138 138 135 134 134 136 133 135 139 145 147 150 151 152 158 154 154 155 153 151 148 148 148 148 147 148 145 143 142 139 137 132 135 138 133 132 132 128 124 122 119 117 117 113 104 96 88 87 84 87 84 80 77 73 69 66 72 68 66 64 65 66 68 68 69 75 77 83 84 85 87 89 89 90 82 73 
136 137 135 138 136 136 136 133 134 131 133 133 135 130 134 136 145 147 149 151 151 148 153 150 148 147 147 144 148 149 147 146 146 137 137 131 130 132 132 132 130 127 127 122 117 115 116 114 111 108 95 90 86 88 85 82 77 79 72 70 71 67 65 65 65 66 68 70 72 82 89 94 92 91 88 91 93 88 78 79 
135 136 136 138 137 136 136 130 133 134 130 131 132 128 125 125 131 138 143 144 149 150 148 145 149 146 146 147 147 152 152 144 145 145 138 129 129 128 127 126 126 126 126 121 119 120 116 114 114 118 109 101 91 89 89 79 81 81 79 73 69 69 69 69 68 72 70 70 72 81 87 87 90 91 90 93 89 87 79 78 
130 134 135 134 137 136 136 130 131 132 132 132 132 124 120 122 125 126 132 136 134 139 139 144 145 146 145 144 149 152 152 153 154 149 142 130 127 126 127 125 122 123 123 120 119 119 113 111 111 117 115 104 96 92 85 81 84 82 81 79 71 68 68 65 73 70 71 70 75 78 89 92 93 85 85 80 81 81 76 76 
131 131 133 135 135 134 132 127 126 132 129 130 127 127 120 123 121 122 125 121 124 128 135 140 144 144 142 148 148 156 158 165 173 172 158 135 129 127 128 122 119 119 124 120 120 121 117 115 117 115 115 113 108 103 92 84 88 85 83 82 77 73 70 73 71 73 73 72 77 79 86 86 88 82 79 79 75 77 75 77 
130 132 133 133 135 131 130 127 128 130 126 122 124 123 121 120 120 118 120 120 118 122 128 132 138 143 140 142 145 157 164 192 224 225 198 145 134 125 125 122 121 122 120 118 117 119 117 116 117 119 116 113 109 113 104 90 86 85 86 83 82 81 74 73 69 70 73 72 75 77 74 73 80 78 73 74 69 67 75 68 
127 132 130 133 134 128 128 125 124 128 127 123 122 125 119 117 118 116 116 115 117 121 120 127 128 132 136 139 143 149 171 254 360 359 277 168 139 130 130 128 120 123 123 117 113 115 113 115 116 120 119 113 110 112 112 103 95 89 86 80 81 82 80 79 77 75 79 77 77 76 74 74 68 68 70 60 43 26 45 63 
127 128 129 130 130 129 126 124 119 121 126 119 119 121 118 117 115 115 117 115 117 117 117 113 117 122 123 124 126 139 174 307 325 302 337 216 146 136 130 128 122 120 119 121 115 115 112 115 118 119 117 115 111 113 109 106 108 96 88 84 82 85 84 81 78 81 83 79 77 72 64 68 72 65 62 48 31 12 7 28 
126 127 132 128 128 127 123 121 122 120 122 117 118 120 117 116 109 112 116 117 115 116 114 114 116 113 116 115 116 126 156 294 306 263 298 286 161 137 131 127 122 123 118 119 116 120 114 116 116 118 115 114 113 112 110 108 108 106 96 86 84 83 85 81 85 79 82 77 73 69 65 68 67 64 54 45 34 20 0 1 
125 124 130 129 125 124 124 122 120 118 121 115 116 118 116 116 114 113 111 114 113 114 112 112 112 110 109 108 106 112 128 241 319 267 277 314 167 138 129 125 118 117 120 116 115 119 109 112 117 117 116 116 112 114 110 110 107 111 107 96 88 84 86 85 81 83 81 76 73 72 67 68 67 66 58 47 37 32 13 7 
125 127 129 125 123 124 120 122 122 118 120 115 116 118 116 114 113 114 108 106 108 114 112 111 109 108 106 100 102 102 106 150 306 307 306 315 164 136 129 124 121 117 115 116 113 113 110 116 118 113 116 114 113 112 111 108 108 110 110 108 98 85 84 77 79 79 78 79 74 74 70 71 72 62 64 57 54 46 43 48 
124 122 127 121 121 121 118 121 122 117 119 114 119 117 113 113 116 110 107 110 109 110 111 107 105 107 107 102 100 102 96 103 164 290 321 235 140 130 125 117 116 114 118 113 113 113 111 111 117 118 116 114 111 110 108 107 108 108 106 109 106 98 87 81 74 78 80 81 79 75 73 75 73 71 68 70 73 72 73 71 
124 125 126 123 121 119 118 117 116 115 119 116 119 119 112 112 112 110 108 107 105 106 104 105 106 101 99 99 99 94 90 95 100 123 142 128 119 120 121 117 116 114 112 115 110 112 111 111 118 118 115 113 110 111 108 104 108 107 106 104 105 101 93 85 75 79 80 83 80 79 76 77 76 75 70 73 72 76 78 78 
123 124 125 119 117 119 119 117 116 116 117 116 118 116 110 109 108 106 107 104 101 102 104 99 102 100 101 97 98 94 91 91 92 94 98 99 100 108 108 113 114 114 115 115 112 115 111 113 116 116 113 113 110 110 106 107 107 109 109 106 103 102 103 101 91 85 84 88 84 83 79 80 81 77 76 75 78 80 79 80 
121 122 124 120 121 119 118 113 114 114 116 115 118 113 106 102 105 105 109 106 104 104 100 98 98 97 98 99 95 95 93 90 92 92 90 94 95 93 95 97 103 108 112 114 112 111 107 110 112 112 110 110 106 110 109 105 107 109 110 110 109 104 105 102 102 89 90 93 82 84 86 83 84 82 77 80 78 79 79 77 
122 121 122 118 121 117 116 113 110 109 111 111 113 112 106 104 104 103 106 104 101 101 96 97 98 97 99 96 95 92 90 88 90 86 87 87 90 90 89 88 91 95 101 107 105 108 112 109 106 106 106 106 101 107 104 107 107 107 108 108 109 109 107 109 114 100 95 95 95 97 92 89 89 82 79 80 81 85 82 77 
117 120 120 118 118 117 117 112 109 111 109 110 111 110 105 102 104 103 104 104 100 101 97 97 95 95 100 97 95 91 85 88 87 86 86 90 90 88 92 91 84 85 90 91 96 103 108 107 104 103 105 106 101 102 102 109 110 110 111 108 110 113 113 116 120 106 103 105 103 100 95 91 86 85 84 86 83 84 82 79 
117 121 117 112 116 116 114 113 109 107 109 107 106 108 98 99 100 100 103 102 101 98 97 95 96 93 92 93 91 95 89 87 85 87 83 85 87 84 85 83 84 82 84 86 86 92 100 100 102 100 102 103 103 105 102 109 111 111 116 113 113 115 116 121 125 117 111 109 107 108 99 97 91 87 89 84 87 84 81 81 
115 116 119 115 112 117 115 109 105 108 105 102 103 105 98 96 99 99 97 100 97 96 94 97 94 93 94 89 92 90 86 83 81 82 81 84 86 84 84 85 85 83 84 80 81 82 88 90 96 98 102 100 100 104 102 110 110 112 116 115 119 119 119 122 127 121 111 109 109 108 104 100 96 92 86 87 85 87 81 83 
111 114 115 114 114 114 114 111 107 109 106 102 102 103 100 99 95 92 96 96 94 95 95 95 92 92 90 86 90 88 86 82 82 80 81 79 82 84 82 83 81 83 81 82 80 81 79 81 85 87 95 97 101 105 106 112 113 111 115 118 121 123 123 121 128 121 113 113 110 111 104 101 98 93 89 90 92 90 84 82 
113 113 116 115 112 115 114 109 103 104 102 103 101 105 97 100 96 94 96 94 92 94 93 90 90 88 88 89 85 88 81 78 78 77 81 77 82 83 83 79 81 80 82 84 79 80 80 76 80 85 87 92 102 108 112 113 116 114 117 120 119 124 123 126 124 118 113 113 110 112 108 101 100 96 86 94 90 92 91 87 
114 116 115 114 111 107 113 106 103 105 100 96 102 99 95 99 97 93 93 90 91 90 91 90 87 88 83 81 86 85 83 80 77 80 79 77 81 82 80 79 81 82 82 82 74 77 81 82 80 81 84 81 89 107 106 115 117 113 114 113 116 117 123 128 131 130 118 119 113 114 107 101 99 95 91 94 92 94 89 89 
110 115 111 113 110 109 106 105 103 104 100 98 97 102 96 94 96 91 91 91 90 90 88 87 88 88 87 82 81 85 80 79 78 79 74 76 78 78 79 78 79 80 81 82 76 87 81 81 81 89 85 87 88 94 95 110 116 113 113 116 118 122 123 128 139 134 118 118 117 118 114 106 101 96 93 94 92 96 92 94 
112 116 115 113 112 108 106 107 103 103 97 96 96 97 88 90 91 91 92 92 87 89 84 86 86 86 82 80 76 79 80 79 75 78 75 74 73 77 78 77 78 79 77 84 77 83 82 82 86 88 86 87 89 91 92 98 106 110 112 114 117 124 122 124 133 136 121 117 117 115 113 109 105 99 93 94 93 93 91 88 
113 116 111 109 108 107 106 102 100 99 98 98 97 97 88 94 91 90 92 90 87 88 83 84 85 86 81 79 80 78 78 80 73 73 73 73 73 77 76 76 79 80 79 80 80 82 84 84 89 90 90 86 88 95 92 94 98 103 108 111 114 123 122 124 129 131 115 116 114 117 113 106 101 93 92 90 91 95 90 91 
111 110 110 111 105 105 104 104 98 98 93 95 96 97 91 92 93 90 91 89 88 91 84 82 85 81 79 77 74 79 77 76 71 71 76 71 76 76 75 79 80 81 79 77 79 85 85 88 88 91 85 84 89 92 93 92 94 94 98 102 109 120 119 122 124 128 116 112 114 111 107 103 97 99 94 96 96 96 90 89 
107 110 108 108 104 103 103 102 95 95 94 93 92 94 90 88 89 87 88 86 84 87 82 85 84 78 75 76 77 78 71 72 72 75 70 73 75 77 75 79 80 84 79 81 80 86 87 86 88 89 90 87 88 92 88 89 92 97 96 99 100 106 108 113 120 125 114 106 109 105 107 100 95 97 95 96 92 92 90 85 
108 109 107 110 106 104 103 101 94 95 94 91 94 94 89 89 89 91 90 86 86 88 82 82 82 78 76 74 77 82 79 73 75 75 77 77 78 80 83 78 81 84 83 84 83 89 89 90 91 88 88 88 86 89 89 90 94 96 97 95 97 99 101 101 112 119 112 109 108 104 104 102 99 93 91 97 91 92 91 90 
107 108 105 106 104 101 101 98 93 96 91 90 90 91 87 90 87 87 85 86 87 83 80 84 77 77 75 77 78 77 79 76 73 77 77 80 81 81 83 77 77 85 81 86 85 91 91 85 87 84 86 88 87 89 89 89 95 94 96 94 94 98 97 97 98 104 104 102 104 107 106 103 102 99 93 94 92 89 91 89 
107 108 105 103 102 99 103 101 97 97 94 90 90 91 86 89 87 86 87 86 86 83 81 82 79 79 80 77 80 82 79 80 79 74 77 80 83 84 84 80 77 83 83 85 82 88 83 87 88 88 88 89 86 86 88 91 93 96 96 93 94 100 97 98 94 96 100 102 105 107 109 101 103 95 92 95 86 89 85 87 
107 110 103 103 102 102 103 99 98 96 96 91 90 89 87 88 86 88 85 85 80 82 81 80 78 77 79 74 78 78 80 80 79 79 80 82 83 83 81 81 81 85 85 82 77 86 86 83 86 82 87 84 84 85 88 88 92 93 92 93 93 99 98 95 100 101 96 102 105 109 105 99 99 96 89 93 91 90 87 90 
109 110 105 106 104 102 101 99 94 95 96 94 93 94 89 89 89 86 85 85 84 82 79 80 82 80 77 80 80 83 79 82 79 87 81 80 82 83 82 84 84 83 83 84 83 85 84 81 84 86 81 82 88 87 89 90 92 94 97 96 96 98 99 98 99 100 99 100 98 104 104 100 102 98 91 95 91 91 90 87 
103 109 106 108 105 103 101 97 96 91 93 90 91 93 89 86 85 87 87 83 82 83 81 82 83 81 81 80 82 79 81 82 82 83 83 82 82 79 82 83 82 83 81 83 80 85 83 83 82 81 83 85 85 89 83 87 92 93 96 93 98 96 95 92 95 99 99 98 103 104 102 99 95 93 85 91 91 94 89 90 
105 104 106 106 100 101 98 97 95 94 95 89 90 90 88 90 87 84 84 82 83 80 80 79 81 80 80 81 79 82 80 84 80 84 83 82 82 84 82 81 82 79 76 81 76 84 84 85 84 84 83 83 86 90 88 87 94 92 95 96 93 94 93 93 96 96 99 97 96 100 102 97 95 92 90 92 90 93 96 88 
105 106 106 105 105 101 100 95 91 91 91 86 90 92 91 90 87 82 82 83 83 85 81 82 82 82 79 83 80 81 83 79 81 82 79 80 81 81 81 82 82 82 80 81 77 81 80 84 80 80 84 87 86 91 87 88 91 90 93 92 93 94 89 87 91 91 96 99 100 106 101 99 99 94 95 92 93 96 98 96 
104 106 106 105 103 97 98 94 91 88 91 92 86 89 89 87 86 84 85 84 87 88 85 86 88 81 81 79 82 87 83 79 81 83 81 80 82 80 79 81 79 82 81 77 78 79 80 84 85 84 82 81 87 91 89 89 89 89 90 88 89 88 89 89 88 88 92 99 103 102 101 100 99 99 92 93 91 96 98 99 
106 104 102 100 101 98 96 94 91 90 90 86 90 92 85 88 88 88 86 84 86 85 86 87 86 83 82 84 84 87 83 81 78 80 75 79 76 79 83 82 84 83 79 79 79 87 82 83 86 88 84 88 88 92 86 88 89 89 86 88 90 91 89 88 88 90 95 95 103 104 102 100 101 95 95 94 98 99 99 100 
104 106 100 104 102 95 98 97 91 89 90 91 90 91 87 86 89 86 87 87 89 87 86 84 84 86 88 86 87 86 84 80 78 81 80 78 78 81 82 81 84 79 80 83 81 83 85 86 89 85 87 88 90 91 90 88 89 91 88 89 93 90 88 88 92 93 95 97 96 100 105 102 105 99 98 97 99 102 101 102 
107 107 104 102 100 97 97 96 93 94 92 90 89 90 86 88 90 87 90 90 92 85 87 86 88 89 91 90 88 89 84 81 80 82 78 79 81 81 86 84 79 82 86 85 84 89 84 85 88 86 90 87 89 92 88 88 87 90 90 90 93 94 91 92 91 95 95 97 103 104 104 105 106 103 99 99 98 106 102 101 
106 110 106 104 99 98 98 96 92 94 91 91 90 94 92 92 89 88 89 89 91 90 85 84 87 92 90 89 86 86 83 82 84 86 83 84 86 85 82 79 83 86 84 88 87 91 87 88 90 92 94 91 86 91 88 90 91 93 92 93 93 95 93 94 96 94 100 102 101 103 107 104 105 100 100 102 104 105 102 103 
110 110 105 104 100 99 98 97 96 95 95 93 92 96 91 91 93 84 89 89 90 94 88 87 87 91 89 87 88 85 86 83 84 83 82 83 84 83 88 83 84 90 88 86 86 92 87 90 91 91 91 88 88 92 91 90 95 91 95 96 97 94 91 91 96 95 100 103 105 108 107 105 104 102 100 100 102 101 103 101 
116 108 108 107 102 100 97 101 95 98 94 97 94 95 92 91 87 89 91 92 89 93 88 87 89 90 87 89 86 86 81 83 81 82 82 81 85 84 88 87 86 87 90 90 85 90 88 89 89 89 90 87 86 90 93 94 96 94 93 94 94 100 96 95 98 97 103 108 109 106 107 100 105 98 100 102 99 103 103 103 
123 111 106 110 104 102 102 97 96 96 94 96 98 97 94 89 92 90 90 92 95 91 85 87 89 90 83 84 86 87 87 85 84 83 83 81 87 86 88 85 88 90 93 87 85 88 89 90 88 89 91 89 90 93 94 97 94 97 99 101 97 102 99 100 102 103 107 110 113 110 109 100 106 101 98 105 98 102 104 107 
135 114 111 108 108 107 103 100 99 100 97 97 99 101 97 92 91 92 93 92 89 95 89 87 90 88 88 86 88 86 84 86 85 85 83 83 88 85 89 88 88 90 91 90 86 94 94 91 92 92 89 92 94 97 97 100 101 102 105 104 103 103 101 104 103 108 110 115 113 115 110 106 108 106 103 103 99 100 106 104 
141 123 115 111 105 105 104 105 95 99 93 98 103 101 96 90 91 95 94 93 94 94 88 86 89 92 90 89 87 90 84 83 84 86 83 88 91 90 88 91 93 92 93 96 92 97 99 98 95 96 99 96 101 104 100 103 103 103 105 108 103 107 102 105 104 108 115 119 117 114 113 107 117 110 106 107 104 105 98 107 


