P2
80 60
442
85 83 85 85 91 93 93 90 86 90 91 94 94 94 98 99 97 101 101 99 100 99 99 100 98 98 101 103 111 108 110 111 117 123 121 122 121 128 133 133 128 128 133 139 130 120 115 112 112 111 100 103 106 97 96 103 104 94 93 90 85 84 79 82 82 77 78 80 75 74 71 59 66 60 60 51 38 16 8 16 
94 86 89 81 89 93 94 94 88 82 85 93 91 103 98 94 97 98 99 95 101 101 95 94 98 101 102 107 109 112 116 116 121 119 120 123 130 130 130 133 133 131 125 125 119 104 103 112 105 109 103 98 105 97 89 94 93 98 95 87 82 74 75 76 79 77 70 78 76 75 74 63 68 58 57 47 32 31 12 17 
92 82 90 91 92 94 93 97 87 89 91 91 92 93 91 97 98 87 84 95 86 83 93 97 94 96 108 110 109 113 115 100 103 116 108 106 120 124 124 127 115 115 122 114 116 119 117 115 104 101 101 99 97 100 90 91 90 90 83 82 80 79 77 69 76 74 66 65 63 63 68 65 59 54 48 38 38 32 19 18 
95 71 92 83 79 95 94 92 89 89 91 96 94 91 94 94 99 93 96 92 98 96 91 97 96 95 103 94 86 116 115 105 106 120 117 115 118 110 120 123 113 108 111 115 119 122 118 118 105 99 94 99 91 91 81 82 87 90 90 84 77 66 72 71 64 77 69 66 62 63 54 54 60 53 44 37 29 32 18 20 
97 75 94 84 79 89 93 91 89 83 82 90 92 93 94 93 92 92 93 94 95 89 94 96 91 94 106 103 97 107 107 106 109 115 111 113 109 107 117 107 101 103 111 114 117 127 126 125 116 113 106 111 116 119 126 142 128 131 259 162 102 80 70 70 68 62 71 65 54 54 56 51 60 46 47 44 28 28 22 25 
98 77 85 87 88 87 94 80 91 83 84 91 89 96 78 79 95 93 100 94 93 91 95 89 89 96 103 102 93 106 106 107 108 110 110 107 100 97 95 110 98 102 96 93 106 108 113 116 109 110 105 109 112 109 117 159 137 143 427 291 104 85 78 66 64 59 62 58 52 48 54 53 55 42 48 42 30 28 31 32 
95 79 90 81 84 94 82 85 89 96 83 90 88 88 87 93 95 89 93 91 92 90 95 90 85 96 90 98 90 93 97 103 98 102 101 93 90 93 84 89 87 80 79 87 85 86 78 80 79 74 66 74 70 65 68 64 64 72 87 80 58 50 47 43 35 38 44 38 33 24 29 45 39 43 51 44 39 43 30 36 
99 84 84 85 86 91 94 85 90 89 85 82 73 83 90 95 84 73 92 93 94 82 81 88 86 90 95 93 88 88 90 87 89 76 86 85 73 91 86 83 92 94 89 101 81 83 81 72 73 76 66 71 75 64 58 53 53 46 50 59 58 44 46 39 42 37 40 30 36 26 24 32 33 46 49 48 40 44 40 52 
101 77 83 82 88 78 81 86 87 86 91 91 75 87 88 92 87 81 91 89 92 83 83 84 86 91 78 81 83 82 85 79 90 84 79 80 79 89 82 87 84 79 81 88 84 79 79 78 67 69 62 62 61 55 53 50 52 51 53 45 42 48 46 44 21 26 33 37 31 33 36 26 41 47 53 54 54 59 65 63 
100 80 85 83 84 85 82 89 88 83 91 90 87 89 87 90 94 91 81 95 89 84 78 76 78 81 84 88 86 82 81 78 82 86 75 78 78 81 87 74 79 82 89 80 79 74 60 58 64 64 56 62 58 54 53 49 45 50 34 29 35 40 35 36 29 29 34 37 35 32 27 20 30 55 63 69 73 72 77 73 
100 76 84 84 83 87 81 88 82 85 86 88 88 79 80 89 85 84 87 79 81 81 83 75 77 77 80 76 73 77 76 75 68 76 66 69 75 73 68 70 73 77 85 77 68 74 66 65 53 55 56 56 61 49 36 35 46 41 45 40 39 34 33 32 29 29 35 32 20 13 27 30 44 59 69 73 76 80 82 85 
97 75 78 81 81 86 81 83 79 77 79 88 80 84 87 80 81 81 82 83 81 80 81 74 69 62 59 75 76 64 75 72 67 62 66 71 71 74 70 69 67 73 74 73 68 67 66 60 58 52 38 53 52 46 41 37 41 43 38 37 34 32 26 34 13 12 25 32 31 26 27 27 34 51 80 80 87 95 86 96 
91 66 82 76 71 81 85 78 78 85 90 85 78 76 80 80 78 80 83 78 70 71 75 72 75 65 75 76 62 65 67 63 66 66 64 57 59 68 71 69 67 73 70 71 69 60 52 48 49 53 47 45 45 39 39 37 21 22 29 31 32 29 27 30 31 28 27 31 31 17 17 22 43 65 84 90 95 108 92 117 
87 64 77 75 68 76 82 79 68 64 87 82 76 74 66 82 69 76 81 73 79 70 72 64 68 64 66 70 60 59 61 49 49 58 57 57 62 73 67 66 69 74 70 65 62 65 55 56 48 46 47 42 42 39 35 34 33 33 37 32 30 25 24 30 25 32 29 36 27 26 25 25 48 68 91 102 109 120 115 147 
88 65 79 78 72 75 72 72 75 74 71 79 75 74 72 80 79 66 65 73 72 71 74 70 68 61 68 66 59 61 61 56 60 59 57 59 64 65 66 59 52 51 65 63 62 52 45 43 39 46 45 45 43 38 37 34 32 35 38 33 27 24 24 27 26 32 18 18 31 30 31 34 45 76 93 118 126 129 132 167 
84 65 80 77 71 73 75 69 77 76 65 66 74 72 78 79 78 78 72 67 74 64 71 62 71 64 65 65 55 59 54 58 60 66 65 62 58 65 64 57 57 59 60 57 53 54 49 48 45 48 45 51 46 44 41 38 35 41 34 34 30 26 24 27 23 27 29 28 31 32 33 31 35 71 105 123 138 146 136 157 
84 56 65 74 69 73 74 66 74 70 66 69 69 63 65 65 71 72 72 67 71 61 62 67 55 52 54 58 63 56 60 58 62 53 45 56 62 51 60 61 57 58 56 56 50 49 47 49 47 46 46 50 46 44 42 44 37 42 35 31 29 14 6 24 24 25 31 35 29 32 32 34 40 69 103 128 135 140 137 146 
79 66 77 76 69 75 74 64 76 74 74 76 73 65 62 57 71 68 60 62 69 65 64 68 66 60 65 63 60 62 66 51 48 62 55 59 61 53 58 43 43 51 51 50 56 52 51 50 50 47 42 51 46 42 41 27 30 48 33 21 29 26 16 23 25 28 29 24 20 33 33 36 44 58 95 113 129 126 135 143 
82 70 72 75 70 74 74 56 70 74 71 74 66 57 56 64 65 65 68 72 55 53 51 54 64 63 59 63 59 51 55 57 61 62 57 51 52 55 57 53 53 50 46 44 39 47 37 31 42 48 45 32 29 41 40 36 38 42 37 31 23 26 19 22 28 28 31 33 31 31 36 34 45 41 68 80 97 98 113 134 
76 64 68 73 70 77 75 55 63 72 72 72 63 63 59 64 65 63 68 54 58 50 50 66 64 50 53 66 58 57 60 57 58 62 55 47 47 48 52 53 52 49 43 53 51 38 43 42 49 41 38 46 45 43 41 37 38 41 32 29 28 25 24 26 28 30 31 32 29 33 36 33 34 32 31 49 65 79 88 91 
71 60 71 68 68 75 69 64 65 65 52 54 60 60 59 60 60 59 65 59 62 58 66 61 63 60 62 65 56 56 57 58 57 60 61 48 53 53 50 52 53 51 46 43 52 39 47 43 45 41 44 49 34 45 44 39 41 44 31 33 25 23 18 28 20 13 19 32 28 29 16 12 25 27 20 24 36 67 77 58 
72 61 68 68 66 71 64 60 67 66 68 67 52 66 62 63 63 59 61 60 67 62 66 66 65 64 66 60 61 60 50 54 60 50 50 46 35 46 55 51 54 55 46 48 47 28 34 47 44 42 41 44 42 42 43 37 46 44 21 22 29 28 24 31 29 22 18 32 30 27 27 19 20 17 21 21 47 62 62 50 
73 59 65 63 65 66 65 59 55 51 65 63 35 59 67 59 57 56 58 61 65 64 63 52 53 66 63 59 35 41 55 55 53 50 44 44 54 54 53 47 48 40 37 46 47 38 45 46 41 48 42 43 39 45 36 25 48 34 30 34 14 12 24 24 28 31 30 28 28 18 8 0 14 20 19 25 58 64 45 39 
73 67 66 63 63 64 63 53 65 54 59 57 45 62 62 55 41 50 60 61 64 62 64 65 66 63 61 59 49 52 56 47 55 53 47 44 55 51 53 50 47 53 50 50 47 39 45 45 40 51 34 34 44 41 35 43 45 35 25 19 13 28 26 24 25 27 26 27 15 14 15 14 13 22 21 34 69 58 40 35 
70 59 67 62 60 62 61 52 59 52 49 57 49 60 61 56 59 64 60 62 62 62 56 61 58 58 62 60 47 46 56 47 48 52 46 47 48 55 51 45 31 32 50 48 45 40 34 37 49 55 48 49 38 39 34 43 40 29 22 27 25 20 20 24 19 27 20 20 14 12 20 5 9 25 26 48 80 50 31 32 
73 60 68 61 58 58 60 52 62 53 56 48 53 57 66 57 61 63 47 42 46 64 65 61 55 59 62 42 39 50 52 53 54 52 47 46 53 50 52 53 49 44 40 43 43 31 38 44 37 31 44 43 40 33 25 30 42 29 25 26 21 17 9 15 21 19 17 15 17 21 25 28 32 29 28 62 79 37 29 28 
72 55 65 58 53 58 61 54 54 58 63 57 56 62 54 50 59 61 56 57 55 53 58 52 56 52 54 53 49 54 52 50 48 35 37 45 46 51 51 35 36 42 39 44 41 43 47 42 44 38 39 42 42 31 27 32 43 25 23 21 19 16 10 16 10 14 17 19 15 32 51 61 58 39 30 64 63 31 31 27 
69 57 65 59 52 45 51 52 51 46 61 62 49 64 62 56 55 54 55 57 52 51 58 52 52 41 41 54 45 33 39 51 46 46 50 46 49 50 49 51 45 37 40 46 46 44 46 43 43 39 40 42 40 32 35 41 40 20 18 20 21 16 1 2 8 19 23 21 29 50 69 81 90 88 78 84 43 30 26 30 
75 61 61 61 57 54 56 53 53 59 66 62 53 66 48 58 56 55 54 41 44 39 54 57 53 52 55 53 48 53 38 33 46 45 52 47 48 48 52 47 44 47 46 49 46 45 44 41 40 44 42 40 39 31 34 42 31 26 23 23 22 21 17 18 14 8 9 34 50 67 79 91 102 105 106 73 36 27 27 28 
73 61 69 65 56 57 63 49 57 60 64 63 56 63 53 35 44 58 59 55 49 43 47 49 38 40 52 55 52 46 49 49 47 49 50 48 47 36 47 46 46 49 44 48 41 32 31 44 44 41 38 42 33 35 41 42 25 24 21 22 20 22 2 7 12 15 25 44 46 60 81 93 107 114 109 53 35 34 29 29 
73 60 54 50 57 65 67 54 51 50 59 61 55 57 49 49 56 55 58 58 53 49 45 53 52 50 49 51 48 49 48 48 46 39 37 46 48 47 42 43 43 44 47 45 40 38 49 43 36 42 39 38 33 27 39 38 24 18 8 9 20 21 10 21 18 29 27 57 68 84 93 99 111 114 85 35 38 31 32 32 
58 49 63 60 58 54 65 51 63 58 57 56 58 48 52 50 50 53 53 49 54 52 49 49 37 38 48 53 48 34 37 47 47 46 43 46 49 47 47 44 43 48 41 30 23 42 43 42 38 25 19 32 21 12 37 37 20 22 20 14 11 13 5 18 27 28 40 66 79 88 83 87 111 116 67 41 33 36 33 36 
57 54 53 41 37 54 61 51 51 45 61 55 46 58 48 50 52 49 50 53 49 52 52 46 45 48 47 49 41 48 46 44 47 46 48 42 48 47 32 31 45 41 39 43 41 38 43 34 32 36 33 34 29 34 39 34 25 21 19 21 21 15 25 24 31 34 47 72 83 91 102 109 112 102 53 36 37 36 34 33 
59 47 54 50 51 58 63 52 56 54 59 52 47 49 44 42 50 49 47 50 49 49 51 43 44 46 51 49 41 44 43 47 36 38 40 45 47 33 35 44 44 42 37 42 38 38 36 39 34 38 34 36 24 36 41 35 28 20 22 23 25 25 26 27 32 43 67 81 90 95 106 113 111 79 46 39 37 40 36 37 
60 43 53 50 45 46 60 46 55 52 58 54 50 53 51 49 40 38 51 47 47 49 44 46 40 44 36 34 42 43 47 43 37 39 45 31 36 42 45 43 43 34 37 42 37 38 39 41 28 25 32 38 31 43 44 41 30 26 24 28 30 30 24 28 40 46 71 88 97 108 112 112 108 59 50 42 45 41 38 39 
58 57 53 48 46 57 62 47 50 46 60 50 44 53 50 54 50 50 48 51 47 52 53 50 46 40 47 49 44 41 28 26 45 46 42 47 44 43 39 43 42 41 38 43 33 39 46 40 42 40 43 41 39 48 49 40 32 32 30 31 30 30 28 27 21 46 79 97 109 112 112 115 85 56 46 46 50 45 40 40 
59 40 51 47 38 51 59 44 57 48 46 46 41 49 49 50 49 44 47 47 49 51 47 48 45 45 36 33 41 38 42 41 47 44 36 41 45 43 37 40 39 36 35 39 28 20 38 42 42 38 41 33 36 57 50 36 34 37 32 17 17 17 10 33 32 67 85 101 112 99 98 102 65 57 45 48 51 49 43 46 
58 44 52 49 55 55 50 38 58 50 50 44 45 45 42 49 47 45 50 41 47 46 48 45 47 43 45 44 44 44 36 41 41 41 36 42 46 38 40 36 36 39 37 43 48 46 47 38 43 40 41 46 56 47 38 35 35 33 33 30 29 29 20 27 36 70 98 110 112 112 113 77 57 55 50 43 43 46 41 48 
56 48 51 48 55 56 53 48 57 48 50 44 44 41 33 33 44 48 49 41 45 46 40 44 44 42 38 39 38 40 44 42 40 34 37 27 31 40 38 36 34 27 36 51 49 53 49 50 44 39 42 46 59 57 44 26 32 38 28 32 32 30 30 38 30 90 126 143 128 117 109 61 59 53 57 54 53 45 42 41 
57 45 53 53 52 56 56 50 53 45 43 47 45 45 40 45 46 47 43 41 45 29 36 41 39 46 43 43 39 42 41 41 33 30 36 40 31 31 40 38 43 49 48 43 53 45 46 57 49 46 48 49 60 57 35 33 31 34 29 49 81 85 79 71 67 102 161 171 135 120 83 60 61 48 57 54 51 48 37 41 
60 41 53 50 50 52 55 54 39 33 43 48 42 49 39 43 43 51 43 43 44 46 50 43 41 41 38 39 30 28 47 45 37 38 40 41 42 27 20 40 44 44 30 27 27 48 58 58 54 51 38 38 63 50 32 31 21 25 30 104 166 197 229 264 237 190 202 195 139 104 71 48 46 63 71 61 52 47 37 38 
57 39 53 53 48 50 51 50 51 43 45 48 36 49 39 32 32 47 47 43 47 45 48 44 40 37 29 33 41 40 28 29 34 41 23 23 41 45 42 41 48 58 44 46 40 46 54 55 61 57 47 55 70 44 18 18 30 35 42 148 195 235 264 282 283 284 228 200 133 90 61 58 60 61 68 54 50 43 35 37 
58 38 52 55 48 52 50 48 42 37 46 47 36 41 38 43 49 48 47 44 46 46 43 47 36 42 40 33 28 40 44 43 41 47 43 43 47 40 41 45 50 54 56 45 48 52 57 53 53 69 57 63 46 22 17 20 33 38 72 182 215 250 279 305 300 287 250 208 132 138 88 63 65 51 49 52 44 40 31 39 
59 46 48 52 51 50 48 38 33 43 29 27 33 38 44 44 41 42 34 34 46 32 34 37 41 30 26 42 37 42 42 42 37 45 40 43 44 45 46 30 28 59 51 51 48 51 58 51 43 43 48 73 61 35 31 31 35 37 119 202 239 279 305 327 326 278 245 188 147 170 136 81 69 63 55 46 42 37 26 32 
61 37 47 47 38 41 47 44 46 46 41 44 33 34 28 29 45 42 38 43 46 39 41 38 39 42 41 37 36 47 44 42 46 43 43 43 50 47 52 45 53 58 53 55 48 50 59 55 49 55 62 69 49 35 30 34 34 46 170 234 264 312 336 350 342 281 269 198 180 158 147 108 81 61 54 43 26 22 28 32 
60 40 47 44 49 45 56 49 49 49 45 43 34 35 36 37 36 36 39 46 31 34 41 42 31 43 32 32 41 40 49 45 46 36 45 47 49 50 44 45 54 59 61 38 35 49 55 56 46 49 59 58 46 49 62 58 49 74 153 235 287 336 351 367 362 292 263 205 200 168 146 114 91 60 46 38 37 37 28 31 
64 40 53 50 45 49 51 46 46 48 46 41 40 41 38 40 44 42 39 40 44 38 33 33 47 41 42 42 43 45 48 45 46 47 49 52 54 51 43 46 47 53 59 52 52 49 54 58 45 50 55 55 72 89 102 102 88 61 79 225 294 335 357 369 343 294 259 208 183 151 137 113 87 56 50 45 39 40 33 35 
63 47 56 52 42 47 48 46 41 43 44 41 41 41 45 42 39 43 42 41 45 39 44 46 44 42 39 41 43 46 44 44 49 50 51 51 52 37 34 45 47 50 59 57 54 45 51 56 47 53 63 61 77 96 88 86 65 60 59 121 287 346 355 371 314 287 239 206 187 161 133 116 82 57 47 51 45 43 35 34 
64 55 60 54 47 45 48 44 44 41 40 32 31 36 35 44 44 43 37 40 43 31 28 43 37 37 40 46 43 43 43 52 44 47 48 49 50 50 50 49 46 37 42 59 53 50 49 52 52 59 70 64 84 101 110 76 63 62 60 102 292 348 355 373 302 279 215 196 185 158 128 109 73 53 51 29 35 40 30 36 
63 50 58 51 47 49 48 44 39 37 40 37 35 32 43 45 42 28 25 37 48 45 42 43 45 42 39 42 46 42 49 40 44 47 45 48 49 48 47 45 48 45 49 54 50 51 56 51 38 54 78 69 93 116 109 65 60 68 84 197 307 349 348 351 295 254 204 197 173 155 123 103 71 54 50 48 43 35 36 38 
64 49 55 43 48 45 48 47 39 37 39 37 37 36 43 41 42 42 46 45 46 43 45 50 50 46 43 36 32 47 43 44 47 48 47 48 49 47 46 45 49 47 46 48 56 42 39 51 61 78 90 60 101 116 92 65 85 128 206 264 312 344 349 329 269 220 186 192 173 153 126 95 63 55 55 41 43 40 35 40 
64 45 53 49 46 44 40 36 37 38 37 37 42 40 38 43 44 44 43 45 41 37 51 53 52 40 41 49 51 42 45 48 46 51 50 51 39 39 46 51 51 52 43 47 51 50 60 57 68 94 93 77 109 116 75 142 190 216 248 289 332 347 351 303 267 211 197 189 173 141 124 87 66 59 61 46 42 47 42 43 
65 44 52 47 45 43 48 49 37 28 40 35 44 40 52 40 45 46 46 42 48 53 54 50 40 43 53 52 46 52 50 38 32 43 46 32 31 48 46 46 47 40 37 48 56 58 65 59 69 95 91 87 89 88 143 188 213 243 273 326 349 345 335 284 257 204 186 169 155 133 118 81 66 59 58 50 44 47 41 39 
61 47 51 45 42 46 50 48 43 44 41 38 37 37 37 34 48 48 50 48 53 51 52 46 47 52 60 58 48 53 54 46 52 47 46 54 51 49 47 49 45 49 51 55 64 65 52 50 68 89 89 83 100 129 164 182 223 256 351 435 364 350 320 274 238 191 185 166 150 122 106 83 74 63 49 40 47 49 41 43 
65 47 50 45 44 47 49 48 45 42 44 43 42 45 44 46 49 52 48 51 57 39 35 46 48 55 52 55 48 50 46 47 53 50 49 52 53 53 38 37 50 51 48 52 58 58 60 62 64 77 95 74 115 147 179 208 236 265 421 442 360 360 307 269 222 195 176 163 128 112 105 76 77 66 57 51 48 48 38 41 
66 37 44 47 46 45 55 49 46 45 44 45 43 43 47 47 52 40 44 51 58 59 49 48 48 57 54 54 51 47 49 46 48 48 51 53 55 52 51 49 54 55 49 55 62 52 49 67 78 98 101 115 149 166 194 219 238 277 360 371 357 363 273 250 209 193 180 164 132 118 93 75 76 65 57 55 46 48 43 41 
66 41 50 45 51 45 49 50 45 42 42 45 45 38 45 50 50 51 50 42 41 56 53 47 45 52 56 54 47 46 47 44 43 37 42 50 53 52 52 50 57 56 57 62 58 29 46 79 79 106 117 136 143 170 208 229 251 270 294 322 354 347 269 249 196 190 197 165 133 103 79 64 60 61 49 39 47 45 37 46 
72 41 48 56 52 50 50 51 43 37 46 52 53 42 38 41 46 45 49 51 61 54 41 43 51 56 43 42 54 47 50 47 49 48 41 37 53 52 51 52 54 57 58 65 43 16 61 78 80 104 123 145 161 179 217 240 257 285 315 343 356 324 262 226 190 183 203 167 136 114 88 75 72 63 55 51 44 43 35 43 
85 46 50 48 57 54 53 51 50 46 48 51 55 46 49 50 47 50 47 52 59 54 51 54 52 47 52 51 52 50 50 51 52 52 50 53 52 54 46 53 57 54 54 52 37 41 70 82 93 121 129 158 187 207 229 249 270 311 337 350 360 298 254 209 188 182 180 150 127 105 82 73 72 58 56 49 41 39 36 38 
90 56 62 58 56 57 57 51 48 51 51 48 50 45 48 48 45 48 51 49 59 51 50 47 39 49 53 47 53 50 51 48 38 48 48 48 50 54 50 54 52 55 53 57 50 54 72 81 84 118 128 153 187 209 232 250 259 365 377 374 369 295 256 204 178 171 159 146 124 102 81 74 72 57 52 46 43 38 36 39 


