P2
80 60
151
105 108 104 100 102 103 102 103 100 102 98 98 103 102 101 97 98 95 95 93 93 90 89 88 90 87 88 86 85 86 86 81 81 82 83 79 81 83 79 74 76 77 72 74 76 79 79 77 75 77 73 74 77 74 75 73 78 79 77 72 73 65 62 63 68 70 61 59 61 61 57 59 53 54 47 39 37 29 23 25 
103 103 103 99 102 107 101 106 101 97 96 100 102 104 100 96 101 99 96 90 93 94 89 90 89 86 87 86 83 83 82 82 81 81 81 78 83 82 79 78 74 75 70 74 76 78 75 75 75 75 66 66 78 76 70 72 76 82 75 76 67 60 64 63 68 64 59 61 62 61 60 49 56 42 45 42 28 23 23 27 
103 100 101 100 104 106 105 107 101 99 96 96 102 97 98 99 101 96 89 94 92 94 91 91 89 85 88 86 81 85 83 72 76 77 78 77 77 81 76 78 79 81 78 78 77 81 79 79 76 73 66 68 68 78 69 69 74 75 70 67 67 67 65 60 65 65 55 54 52 49 49 50 47 43 39 38 31 29 30 24 
103 101 103 102 102 106 106 104 99 97 97 101 101 98 94 95 102 91 90 90 91 92 90 87 85 84 86 83 76 80 82 78 77 78 77 74 76 71 74 79 74 74 79 79 75 79 78 80 68 68 66 65 67 68 73 64 72 71 64 59 61 64 62 59 56 65 58 50 46 48 43 41 49 42 33 33 25 22 24 28 
104 101 96 99 100 100 103 103 97 96 92 97 98 96 94 92 93 89 91 91 86 86 84 86 85 85 88 84 74 76 79 73 75 74 71 74 67 69 76 77 73 75 80 74 74 76 72 74 68 62 63 58 61 60 65 60 66 62 63 58 60 59 55 59 54 49 52 46 37 43 41 39 38 37 31 32 20 22 16 20 
108 95 96 96 96 92 101 93 94 92 93 94 95 96 88 87 92 88 87 89 82 82 82 79 82 87 87 86 75 75 76 76 74 72 73 72 73 69 76 83 78 79 69 69 70 71 75 71 67 69 57 61 59 56 61 62 70 66 62 60 61 59 60 50 46 43 47 45 38 34 36 37 39 29 27 20 16 19 18 14 
109 96 98 94 96 96 93 94 93 92 91 91 93 87 86 88 91 81 83 87 85 81 82 77 78 84 85 84 77 72 77 76 74 68 72 68 62 68 67 72 72 72 68 63 68 66 64 66 71 64 64 62 59 58 63 62 63 58 60 60 57 55 54 49 39 42 42 33 37 30 33 38 34 26 28 15 16 15 17 17 
115 98 95 95 97 97 92 90 95 94 90 87 80 80 86 83 85 75 78 81 80 72 71 70 71 78 83 80 69 70 72 69 75 62 71 71 63 66 69 67 70 72 62 69 57 64 67 61 67 65 58 64 68 58 62 58 57 57 51 64 59 46 49 41 41 37 43 29 32 27 23 27 24 30 15 27 9 14 8 21 
125 102 101 94 98 96 92 96 92 92 86 90 82 88 84 83 81 74 76 76 71 67 65 61 63 69 66 69 64 63 66 65 69 64 62 65 60 60 58 69 67 67 67 60 54 59 61 59 61 65 61 60 54 50 53 55 61 51 53 41 41 48 48 45 29 34 31 31 27 30 26 21 25 19 15 15 15 13 10 17 
151 128 122 108 107 103 99 101 103 96 96 92 92 89 84 89 84 75 69 70 65 59 59 59 55 60 61 68 63 62 66 63 63 63 61 63 57 59 67 59 58 64 64 58 57 56 54 53 56 59 51 58 49 51 51 49 51 48 45 39 37 41 44 34 32 27 31 31 26 23 21 18 20 18 17 16 14 14 11 12 
149 143 133 115 110 114 113 107 107 109 103 104 102 98 106 105 78 69 68 64 60 59 60 54 55 53 57 60 59 58 61 60 56 63 55 62 55 52 56 58 61 62 66 57 54 59 52 49 49 59 47 46 53 53 50 47 49 44 42 39 39 36 39 35 28 28 28 27 24 20 20 21 20 16 15 16 14 14 12 16 
119 100 93 96 94 98 100 98 97 105 102 99 99 105 110 100 74 68 63 62 62 61 59 53 52 52 54 56 56 53 61 54 55 59 53 56 50 55 55 58 61 61 60 55 54 57 58 53 46 55 40 48 46 45 45 45 45 38 38 39 39 37 34 34 29 28 27 28 25 20 18 21 18 16 17 13 15 18 15 21 
92 71 75 66 65 68 72 63 69 74 71 72 75 75 80 75 65 67 66 63 57 58 60 56 55 53 59 60 54 54 55 55 54 54 55 54 45 54 61 58 55 63 56 55 55 53 47 49 48 54 45 39 37 39 35 38 30 32 32 30 34 33 25 30 30 29 26 25 33 18 19 17 19 18 12 17 12 18 18 18 
85 64 64 66 63 63 62 62 57 60 61 64 59 54 53 63 59 62 58 59 60 56 59 58 55 55 57 54 50 50 55 51 48 48 50 48 46 58 59 57 55 53 55 50 46 51 44 48 45 48 45 37 39 36 32 34 31 33 33 32 28 31 34 26 29 28 22 27 27 21 17 20 23 18 18 18 19 22 20 23 
78 59 64 60 63 60 58 59 61 57 52 64 55 56 55 62 66 59 55 59 59 56 63 57 54 53 57 56 45 48 52 48 50 52 47 53 54 54 59 49 47 45 50 47 44 45 44 44 38 45 45 39 36 39 37 34 30 32 34 33 26 28 34 24 26 30 22 20 27 26 21 26 26 19 21 29 26 29 21 28 
70 57 63 65 59 57 59 56 58 62 47 49 58 56 59 62 67 61 57 58 58 58 57 55 54 57 55 56 46 47 49 45 47 49 46 49 51 54 56 49 44 41 46 46 43 43 41 37 35 43 37 42 35 33 27 33 29 33 33 27 30 20 23 26 23 20 24 23 25 25 27 25 30 24 27 32 31 28 22 24 
71 61 59 59 59 60 60 54 57 57 46 48 55 43 44 51 61 60 58 56 55 51 53 56 50 49 47 50 47 48 49 53 45 42 45 47 51 48 46 48 43 43 45 46 38 38 35 36 40 33 37 43 33 37 36 27 29 29 32 30 23 17 21 17 22 18 24 24 24 26 27 29 30 31 35 35 35 28 23 31 
71 56 60 63 63 60 59 55 56 57 53 51 52 46 47 49 59 60 55 56 57 52 51 54 51 51 51 50 51 49 52 45 42 46 44 47 50 47 47 37 40 38 39 35 42 39 39 40 38 32 35 36 31 36 29 29 30 31 28 27 29 21 22 20 21 23 20 25 19 28 26 30 34 33 33 35 32 30 27 24 
66 57 59 59 62 56 59 52 56 58 52 52 49 45 42 52 55 51 54 54 47 45 48 51 52 48 45 52 50 47 47 42 43 44 46 39 34 44 40 39 39 38 33 31 36 36 42 24 37 36 35 26 30 32 31 24 29 29 30 27 21 21 25 24 26 28 19 27 23 30 29 29 32 30 31 25 28 28 27 26 
64 54 50 54 57 58 54 47 51 53 50 51 51 48 46 50 54 49 56 53 45 40 48 51 48 47 46 51 47 46 44 42 43 43 37 36 32 37 37 38 39 38 29 36 35 29 32 29 36 34 33 28 23 29 33 30 29 25 26 29 26 26 25 24 26 26 25 30 24 30 26 27 27 27 21 25 28 23 18 23 
65 49 55 45 55 55 51 46 47 49 42 45 47 44 44 43 51 50 56 48 50 47 49 48 47 51 48 52 46 43 46 43 37 37 37 32 31 38 34 36 34 36 30 26 40 27 33 30 31 29 31 30 28 34 32 26 26 29 26 29 25 24 27 28 26 26 24 23 25 25 16 10 14 22 17 20 18 15 15 19 
56 48 50 49 51 51 46 44 48 48 46 46 38 45 44 43 52 49 53 50 49 49 49 50 48 48 52 49 47 42 39 39 45 32 33 29 26 31 34 29 30 33 29 21 33 24 30 32 27 31 27 28 26 30 34 27 29 29 25 26 26 20 27 25 28 25 19 22 29 22 21 8 4 10 14 14 14 12 14 14 
57 51 50 52 50 50 48 46 40 38 46 45 32 42 44 43 50 45 45 47 53 48 49 45 48 52 49 52 41 33 41 42 35 35 30 29 31 30 30 23 26 23 22 24 34 23 28 31 23 30 23 27 21 32 26 24 29 24 24 26 20 23 28 24 30 22 23 22 23 12 2 1 5 11 9 11 14 10 11 12 
52 53 48 49 48 50 47 41 45 43 47 41 33 38 45 46 42 40 43 47 47 49 49 47 50 48 46 45 38 32 38 31 32 31 25 27 34 35 29 25 25 14 25 35 31 22 24 27 23 29 26 20 28 28 28 25 29 24 23 26 20 22 22 22 23 24 19 18 14 5 2 3 0 13 10 10 13 12 9 13 
54 48 48 46 51 49 45 39 46 44 37 35 34 44 48 43 43 47 41 44 44 41 48 46 44 47 46 42 34 31 32 28 29 31 23 26 26 33 29 26 15 15 29 30 35 25 20 20 26 28 24 23 22 29 27 24 23 22 22 25 24 21 22 24 20 21 13 11 11 12 11 4 6 15 13 13 12 11 11 10 
57 49 50 41 45 40 43 39 46 41 39 38 40 39 48 41 45 43 37 40 40 46 44 42 39 48 45 31 29 30 33 30 31 30 23 24 26 28 30 29 16 18 17 26 28 26 22 23 21 20 31 26 18 18 23 12 17 22 25 23 19 13 19 12 22 17 7 8 10 9 11 10 14 13 13 13 14 10 9 6 
59 49 49 42 39 43 42 40 37 44 46 43 44 46 39 38 44 43 39 44 38 40 42 37 40 36 36 31 28 26 32 32 23 26 20 23 21 26 22 17 19 13 13 25 29 29 26 23 23 14 23 24 20 17 18 14 16 19 21 21 20 13 13 9 10 12 10 12 9 11 12 12 13 13 9 11 16 7 6 6 
58 50 49 43 41 42 42 45 45 44 44 45 43 47 46 39 40 39 36 42 35 36 38 33 36 33 29 33 27 20 26 32 29 22 28 27 25 28 24 22 14 19 19 24 29 27 25 24 19 21 17 20 17 18 17 14 17 14 9 14 11 9 8 3 5 8 12 11 14 12 15 14 15 13 10 10 9 10 6 12 
58 57 52 51 46 44 50 48 47 48 48 44 44 47 32 39 35 38 37 32 36 28 35 37 34 34 36 31 28 29 23 28 33 25 29 29 21 27 24 24 18 22 23 25 28 28 24 24 19 21 19 18 20 21 14 11 14 12 10 4 10 12 11 2 6 6 6 12 19 14 13 11 15 12 13 11 9 8 10 12 
57 57 55 51 48 51 54 45 48 47 48 45 45 44 35 29 30 40 40 41 31 31 28 34 31 33 35 38 33 27 27 29 37 27 27 27 22 20 19 20 18 21 25 26 23 23 23 24 24 22 18 18 14 16 20 12 16 11 10 11 11 12 15 7 11 15 15 18 17 15 12 15 16 20 15 13 14 12 7 13 
58 59 51 52 50 61 63 43 47 47 47 49 47 44 35 30 35 43 39 40 38 34 28 32 31 35 35 34 35 32 33 36 37 24 27 24 20 23 14 16 18 20 22 19 24 22 25 25 17 18 16 13 8 9 17 11 15 12 5 10 8 13 11 11 12 16 17 18 18 17 13 15 21 16 14 15 14 15 10 10 
56 49 52 49 55 57 61 47 52 50 48 46 49 39 42 35 35 38 38 39 37 41 33 33 35 33 33 35 32 32 33 35 29 25 26 25 23 24 17 12 15 18 20 17 19 27 27 23 17 13 11 12 10 7 9 14 14 14 11 13 9 11 12 15 18 19 21 20 20 20 8 9 18 18 16 16 17 21 10 10 
62 53 47 43 50 55 57 50 47 46 48 47 43 43 42 39 39 38 38 39 41 41 38 34 31 35 35 37 34 34 34 31 29 27 25 26 23 21 12 13 13 19 16 19 18 24 23 14 13 12 11 11 10 12 10 11 15 14 13 13 14 11 17 19 21 23 19 20 21 18 21 15 16 17 17 17 17 17 14 15 
57 43 44 41 40 50 50 42 42 43 48 43 42 40 36 35 34 39 34 38 37 37 37 34 33 35 37 35 36 34 33 36 32 25 27 27 26 17 13 12 12 18 18 22 20 24 16 14 13 11 9 11 7 10 11 14 20 12 12 12 21 18 21 22 19 23 21 20 24 20 27 23 22 18 16 19 17 14 15 14 
55 44 44 43 42 44 48 36 44 43 45 39 45 42 38 33 32 30 36 36 38 39 39 31 29 37 33 32 37 29 33 29 22 28 25 22 21 26 17 13 17 12 16 24 21 17 18 20 14 8 12 16 11 13 14 21 27 18 17 21 21 19 17 15 25 23 20 21 23 28 24 21 19 17 18 20 18 13 15 17 
49 51 46 39 40 40 44 33 37 39 45 39 34 37 37 36 40 34 32 35 37 33 35 29 31 25 28 34 30 29 27 27 30 27 27 27 25 24 17 12 13 13 15 21 19 17 21 18 14 17 17 15 15 21 19 27 24 23 25 20 19 21 14 18 19 22 21 21 25 22 18 22 25 20 18 22 22 22 13 15 
49 41 44 44 33 39 37 27 36 38 34 29 30 36 37 35 35 35 31 31 30 30 28 30 32 28 24 27 27 25 29 24 30 28 31 31 30 29 18 13 10 11 12 17 19 12 19 17 14 17 19 16 19 23 21 27 29 25 26 18 13 11 15 20 20 21 21 21 27 19 15 24 22 22 17 22 22 20 18 20 
46 41 40 44 37 32 39 23 33 34 31 29 35 29 26 24 31 29 30 28 27 22 26 20 32 25 23 25 26 26 29 30 29 27 19 26 20 27 23 20 16 19 13 18 21 19 20 19 16 16 17 25 19 19 20 26 27 28 22 24 20 13 14 17 20 24 23 19 22 19 21 26 26 23 21 23 16 16 16 18 
46 41 43 37 36 36 29 30 35 28 29 26 34 31 24 23 28 19 24 20 20 20 25 19 24 27 20 23 25 26 30 30 25 19 16 20 16 23 21 23 22 22 19 24 24 23 21 22 19 20 20 25 24 23 23 23 31 26 25 21 24 18 18 23 21 26 25 23 20 23 25 24 27 20 21 22 19 18 11 16 
47 40 40 35 27 28 29 28 28 16 17 25 28 29 19 15 24 24 21 24 18 19 19 19 23 26 22 22 21 29 29 28 21 23 21 24 18 18 18 22 25 22 18 18 25 22 20 23 25 21 27 25 25 25 25 23 25 21 23 23 25 21 21 17 16 24 23 21 23 26 18 22 23 21 18 22 19 22 14 17 
43 35 38 32 26 26 26 27 21 13 20 23 21 25 13 13 19 28 21 21 22 24 23 17 18 18 18 19 21 15 26 25 24 22 23 21 23 20 13 22 25 23 23 18 17 25 24 24 24 27 17 17 29 28 22 20 18 20 22 22 23 17 19 22 14 19 18 19 23 20 24 20 19 17 22 22 20 20 20 18 
47 32 35 33 27 25 25 23 23 16 19 20 15 22 10 12 17 27 22 23 22 26 24 22 19 18 18 18 25 19 24 20 22 23 18 20 24 24 24 24 29 26 27 20 19 18 24 21 23 26 19 20 25 26 21 18 21 25 19 20 21 19 16 17 17 14 17 18 18 18 23 21 18 18 20 23 15 17 14 11 
45 25 32 26 24 24 22 23 18 13 17 18 13 19 17 13 27 21 25 19 20 22 21 18 19 19 17 15 23 26 26 26 26 27 27 19 28 25 24 23 28 28 31 23 34 29 24 24 21 26 25 24 19 21 17 20 25 22 20 19 20 21 18 15 14 16 19 21 20 21 23 22 21 16 15 17 17 11 12 14 
41 33 23 26 26 22 17 19 14 15 13 7 15 16 18 19 18 26 22 19 21 17 16 18 22 20 16 18 21 25 26 27 26 25 26 22 27 31 32 22 21 34 35 31 27 29 27 24 22 19 25 26 24 20 17 19 22 19 17 20 16 25 21 20 13 14 13 21 21 23 20 20 16 15 16 18 17 11 15 10 
42 24 22 21 17 23 22 17 24 22 13 9 8 9 12 13 17 20 17 18 18 17 20 17 22 17 21 20 21 28 30 25 25 28 28 26 32 31 33 24 28 37 28 27 19 24 28 26 19 23 23 27 17 18 22 18 16 15 20 16 19 24 25 23 9 12 17 10 17 15 16 11 13 14 14 13 7 10 11 8 
44 22 18 13 16 19 29 24 23 24 16 13 12 10 12 16 15 18 16 19 17 14 17 16 23 19 18 22 27 28 31 28 29 23 31 30 31 33 28 25 33 32 30 26 22 19 26 27 22 20 24 16 19 15 21 15 14 17 19 21 22 23 23 20 12 18 9 8 15 15 13 15 10 12 11 10 9 10 6 7 
37 24 21 23 17 21 27 23 17 23 19 14 14 16 15 17 19 17 20 20 17 17 17 14 22 17 18 18 24 27 31 27 31 30 34 34 35 34 28 30 28 26 30 25 24 19 23 29 21 17 24 19 20 16 20 13 16 18 23 22 21 23 23 22 23 22 14 10 12 13 14 11 12 10 9 12 10 7 9 12 
38 26 25 20 20 24 22 21 15 16 15 12 14 18 20 17 17 19 16 21 20 16 21 21 23 15 20 20 26 29 27 25 31 30 37 34 33 33 28 24 30 26 27 26 25 21 17 25 17 18 21 21 27 16 15 16 20 19 23 23 24 23 16 16 18 21 14 13 12 10 8 10 13 12 7 10 10 12 7 12 
37 34 28 26 23 22 20 16 17 15 15 12 13 17 16 19 24 13 13 15 20 15 19 22 13 14 18 24 23 26 28 33 27 28 33 29 32 30 29 27 29 32 21 28 25 22 19 20 17 14 17 20 27 19 19 20 24 22 22 22 22 15 10 14 14 19 13 13 13 12 4 8 13 11 7 8 12 14 10 8 
37 33 28 24 22 22 20 19 17 14 14 10 16 13 19 19 20 7 11 12 11 17 20 16 22 22 18 23 26 23 39 23 29 30 29 29 32 30 27 31 29 27 22 21 15 20 18 18 14 11 14 17 25 27 21 18 26 22 22 18 20 17 13 11 12 12 9 9 9 11 8 12 12 12 11 11 9 8 11 13 
34 28 25 23 23 20 19 17 16 14 13 14 20 15 19 18 21 14 17 17 17 19 21 23 23 24 21 24 22 28 26 25 31 31 31 28 31 31 28 30 27 26 24 24 16 16 17 19 24 20 11 17 27 25 19 18 17 21 17 14 20 14 14 12 9 9 7 8 14 10 9 15 15 16 13 10 10 13 14 11 
28 26 26 22 20 18 13 14 15 15 12 13 19 19 20 16 20 16 22 18 17 21 29 25 23 22 22 26 26 28 27 27 28 34 34 31 25 31 30 31 33 29 25 27 21 18 24 23 26 26 22 24 27 26 20 18 18 14 13 16 18 13 9 13 14 12 10 11 15 17 10 15 13 16 16 15 14 20 11 19 
31 25 24 20 21 17 14 15 11 12 15 14 20 22 21 17 15 21 21 18 16 21 26 24 22 30 28 30 31 27 27 27 28 28 32 26 25 29 28 28 29 25 30 29 24 17 21 20 20 25 24 25 29 28 21 18 18 17 13 18 18 12 11 11 11 14 11 12 18 11 11 15 15 15 11 16 19 21 22 18 
33 23 18 16 17 17 17 16 14 15 17 18 18 19 18 8 19 18 20 21 20 23 21 18 16 26 34 38 30 33 37 28 30 33 34 29 29 27 24 27 30 31 27 27 23 22 18 18 23 25 25 21 29 17 18 20 17 18 12 19 15 13 10 12 12 12 13 14 12 13 12 16 14 16 14 15 19 24 11 15 
29 22 17 17 16 15 16 20 18 18 20 21 20 21 18 18 20 16 18 23 24 18 21 17 14 30 31 31 29 27 27 25 29 26 30 35 29 34 24 28 29 28 27 24 27 22 17 18 21 22 23 16 27 13 18 19 20 18 18 12 13 13 13 10 11 15 10 10 6 10 8 10 10 13 11 17 15 17 16 20 
33 16 15 14 17 16 20 16 16 16 14 17 22 20 18 18 23 16 16 20 24 22 22 17 17 31 28 33 30 25 27 25 30 23 30 33 32 28 26 26 29 31 27 28 28 20 14 18 20 19 21 21 19 11 13 17 17 15 13 10 14 15 14 8 16 17 6 9 6 6 7 11 9 13 11 14 15 15 9 14 
41 19 17 16 20 16 19 18 21 17 15 17 26 17 16 14 21 18 15 19 24 21 26 21 19 30 29 28 32 24 26 22 23 26 27 29 28 28 29 25 32 35 32 33 26 17 15 18 16 19 20 19 11 13 17 17 20 18 16 12 13 15 13 11 17 16 13 12 14 9 7 9 14 13 10 10 12 13 8 17 
48 20 21 22 23 17 21 24 19 17 20 23 27 20 17 16 16 15 13 21 24 23 26 24 21 30 26 25 28 23 32 29 28 26 28 30 30 30 27 30 31 35 27 31 23 16 18 21 17 17 17 16 20 14 18 20 20 20 19 13 18 16 19 10 16 18 17 17 17 10 12 13 18 18 11 12 10 10 12 14 
55 30 24 22 24 25 23 25 20 18 15 26 32 23 21 22 18 16 17 23 27 24 24 25 26 27 26 28 28 25 32 30 30 29 30 30 32 38 28 28 30 34 29 30 23 21 19 20 19 19 18 18 22 23 22 17 18 24 23 18 18 17 18 14 14 19 18 18 21 18 13 11 16 17 14 12 10 8 9 14 
64 38 30 24 24 24 26 21 20 20 18 22 29 23 20 19 20 18 18 25 23 24 27 27 26 25 28 27 29 25 34 29 32 30 29 29 31 38 30 30 33 35 33 32 27 23 21 20 22 18 21 17 22 24 21 16 19 25 22 21 23 19 14 17 13 17 16 15 21 19 12 14 14 16 11 12 11 7 7 15 


