P2
80 60
111
102 96 100 101 101 101 102 101 96 93 97 99 99 104 103 101 97 99 102 99 98 96 92 96 88 93 89 88 92 95 98 96 95 97 89 88 89 83 84 82 81 80 79 80 75 79 76 76 78 77 74 72 71 71 72 72 71 68 67 68 63 61 62 63 64 63 59 53 51 52 47 42 39 33 28 27 24 11 11 10 
101 98 101 101 102 106 105 101 98 96 97 99 101 106 100 101 100 100 100 98 97 98 93 93 93 92 94 95 93 95 96 96 95 97 89 86 87 85 86 82 82 83 83 80 81 81 78 77 77 80 77 72 69 75 71 72 70 71 70 70 61 62 63 63 62 59 58 50 51 48 47 37 39 32 26 24 16 13 10 10 
103 99 99 103 105 109 105 104 104 100 101 104 105 103 102 103 100 98 100 102 99 96 96 98 97 94 98 96 94 96 98 95 93 96 89 88 87 84 83 86 85 85 86 84 86 89 88 85 82 74 76 73 71 72 74 71 70 65 66 64 60 61 60 58 60 62 55 46 48 39 44 39 31 24 23 22 18 12 11 11 
104 100 102 104 105 111 108 105 101 99 104 102 105 105 103 105 103 102 103 100 99 98 95 100 95 95 100 96 92 97 97 93 96 93 88 87 84 80 80 84 84 89 88 86 91 89 88 89 83 80 79 74 69 72 69 68 69 69 62 63 58 61 59 57 56 57 56 43 44 38 36 32 29 18 18 18 17 10 8 10 
104 101 104 104 106 105 106 104 106 100 103 103 108 104 104 101 101 100 102 102 102 103 100 99 92 96 98 97 92 95 95 95 91 89 87 88 87 83 84 82 87 87 85 87 87 90 89 90 85 78 77 72 69 74 72 70 69 65 62 62 56 56 55 57 54 47 51 44 39 33 34 26 23 18 15 13 8 7 7 2 
104 103 105 103 106 102 109 100 103 101 101 104 102 102 99 100 102 104 102 100 99 96 94 96 93 94 96 97 92 94 94 96 92 94 87 83 85 81 82 83 88 86 82 81 85 87 84 85 82 79 74 70 68 68 68 69 67 62 59 60 53 57 57 50 45 45 43 39 34 25 26 25 18 16 9 7 7 6 7 7 
107 102 103 105 106 104 102 101 105 103 100 103 102 104 101 102 99 99 100 100 102 98 97 96 94 99 95 95 94 96 93 91 91 91 84 81 84 79 81 86 85 80 82 81 84 83 81 82 81 79 72 71 67 66 67 67 64 58 58 59 51 55 54 47 40 39 36 30 32 22 16 20 16 9 12 3 6 4 3 7 
105 106 103 105 103 104 105 100 107 100 102 101 100 100 102 101 95 97 101 101 100 92 94 92 93 93 96 95 89 94 93 93 87 86 83 80 75 79 80 81 82 83 79 79 78 81 80 79 79 72 74 70 66 67 65 62 59 52 53 53 54 47 51 42 38 33 34 27 28 17 14 14 9 8 0 5 1 2 2 3 
110 108 106 107 105 99 100 103 105 103 103 101 101 102 101 103 97 98 97 97 99 95 95 92 93 93 92 88 93 92 91 90 89 86 79 79 74 76 78 83 79 79 78 80 75 76 78 78 74 75 74 69 64 63 60 59 56 49 50 48 46 45 47 39 31 26 28 26 22 20 12 8 10 1 2 1 0 3 3 3 
107 103 107 109 100 103 103 104 102 104 105 102 100 102 97 101 96 100 96 97 98 95 91 88 89 91 90 90 88 92 90 88 87 85 78 78 79 78 80 79 79 79 79 78 75 78 72 72 73 70 70 65 60 61 57 53 52 49 42 41 42 43 41 33 32 27 28 22 23 14 10 9 2 2 2 3 2 1 3 4 
108 103 106 108 101 103 102 102 101 103 100 101 101 101 96 98 97 98 95 98 92 93 94 89 85 86 88 87 88 91 88 85 80 81 75 73 75 74 74 74 73 73 77 75 75 73 71 68 67 66 66 60 59 57 54 53 48 47 42 40 39 39 38 31 27 22 23 23 22 12 8 7 4 3 2 4 1 3 1 1 
107 105 106 104 102 101 101 100 100 100 102 105 100 101 98 99 97 96 98 97 94 93 92 90 87 85 87 86 88 89 86 81 78 76 74 73 75 73 75 77 71 75 76 75 73 74 71 68 65 65 59 59 55 55 51 49 47 43 40 39 37 35 37 30 26 18 24 23 19 15 9 7 2 1 2 2 8 4 1 7 
104 104 104 104 100 101 104 99 97 100 101 100 98 98 96 93 96 95 95 94 90 92 91 89 87 84 86 88 83 87 83 79 74 77 68 69 70 73 72 73 71 75 72 75 70 69 65 64 63 65 64 55 54 52 48 49 41 40 37 37 39 36 35 30 29 23 25 20 18 10 7 6 5 5 5 9 7 8 7 9 
101 97 102 101 100 100 103 101 96 93 98 100 98 96 96 96 90 96 93 90 92 91 89 89 88 83 86 86 79 83 81 69 71 73 68 70 72 71 73 72 69 69 72 72 66 66 64 64 57 60 58 55 50 51 44 46 44 40 35 37 36 32 32 29 28 25 25 21 19 14 11 9 8 0 3 9 8 13 6 13 
104 101 104 102 100 99 99 98 97 97 95 99 95 98 94 95 90 93 92 94 94 94 87 88 86 88 86 85 80 77 76 74 70 72 70 70 72 72 76 68 70 68 70 68 63 66 60 64 58 57 58 53 53 51 48 47 41 38 42 37 35 30 34 30 30 22 20 19 19 16 13 14 12 6 7 18 19 16 14 9 
103 98 100 104 100 100 100 100 97 97 92 97 95 98 96 96 89 95 93 92 93 91 88 86 85 85 85 83 79 78 74 73 70 71 69 70 69 71 75 73 66 64 66 64 63 64 62 58 56 59 56 52 46 49 47 48 41 38 36 36 34 32 31 29 28 27 24 21 24 22 21 16 8 13 13 21 23 22 18 15 
103 98 103 103 100 102 101 94 96 97 93 95 97 92 92 91 92 94 93 90 91 90 87 88 81 83 83 81 81 79 79 71 70 70 66 72 72 69 71 71 66 67 65 68 65 63 62 60 55 56 56 52 47 48 46 44 39 38 34 37 28 27 26 29 25 26 25 24 25 23 26 22 18 19 16 25 25 24 16 16 
103 99 101 102 102 100 96 95 98 97 92 95 94 95 90 90 91 94 92 91 91 87 87 86 81 83 84 82 79 78 73 71 71 70 66 72 71 67 69 67 62 63 64 67 70 63 59 59 56 56 57 51 45 45 45 41 42 37 39 37 32 30 30 27 29 28 27 27 29 27 29 29 23 27 21 24 25 22 19 16 
101 100 100 101 102 100 95 92 96 97 94 97 95 91 85 92 88 90 93 90 85 84 81 81 84 80 81 82 80 76 73 73 69 70 67 66 69 66 68 66 68 64 63 61 61 62 58 58 54 56 53 46 44 45 45 43 40 34 34 35 32 31 28 31 32 28 28 28 32 27 31 28 25 25 22 14 13 21 16 14 
102 99 99 104 103 101 102 93 93 95 96 97 93 92 89 91 94 92 93 86 87 83 83 86 83 79 82 85 82 82 76 73 71 73 68 65 67 66 70 67 64 61 62 66 62 60 60 58 55 57 53 49 45 48 42 41 43 39 35 39 32 36 36 34 31 34 32 35 35 30 34 33 24 21 17 14 13 12 13 13 
100 94 97 98 99 100 97 94 92 93 90 88 89 91 87 89 88 89 91 88 86 87 82 83 82 82 87 85 82 79 73 71 69 72 66 66 71 67 69 67 67 61 66 62 61 57 59 58 55 54 53 47 44 50 43 42 40 37 36 36 32 33 35 35 31 30 31 29 32 30 20 11 12 14 12 9 8 6 9 8 
98 100 98 100 98 97 99 91 90 92 92 91 87 89 88 89 88 88 85 88 85 87 87 87 82 83 85 83 80 76 70 68 67 68 65 65 65 65 69 67 68 68 65 60 65 63 58 60 53 54 53 48 43 45 44 44 41 39 35 36 33 36 36 33 33 30 32 30 32 26 24 13 7 7 7 7 6 6 6 8 
98 93 98 100 99 97 92 92 89 90 90 91 85 89 89 87 83 87 87 86 88 86 83 83 82 86 86 84 75 75 70 71 64 65 65 66 69 69 73 73 70 65 64 64 64 59 58 55 55 51 51 48 44 44 46 40 41 37 34 39 30 32 36 32 36 33 32 29 28 20 12 10 10 8 10 7 4 3 1 3 
98 98 99 99 99 99 96 92 89 87 90 91 84 88 86 84 80 85 82 82 83 83 82 83 84 86 84 80 73 72 69 63 65 65 63 67 71 71 69 70 69 66 65 62 62 58 58 55 54 54 48 44 45 45 44 42 42 35 34 33 28 32 34 34 33 28 24 21 19 11 12 9 9 6 7 4 6 7 2 4 
99 98 100 100 94 92 91 88 87 86 86 86 85 88 84 87 82 85 85 83 85 83 80 84 84 85 85 81 76 69 67 65 63 66 62 65 69 68 73 70 62 61 64 61 61 59 56 53 54 53 50 46 41 45 43 42 40 32 34 34 32 27 33 27 29 25 22 21 19 12 12 10 6 9 10 9 6 2 3 0 
101 100 101 99 97 93 93 86 86 87 89 88 87 91 89 88 87 88 84 77 81 86 85 80 82 85 82 74 70 70 69 66 66 63 62 64 70 70 71 65 65 63 63 63 60 56 56 52 48 51 51 48 41 45 39 40 36 37 35 31 31 27 29 21 23 25 17 15 16 14 14 14 13 10 13 10 7 4 1 3 
100 99 102 99 93 90 93 88 89 90 91 90 90 93 88 89 86 85 86 85 80 81 82 78 80 81 82 76 70 64 66 62 63 64 60 65 71 70 69 67 62 61 63 58 60 60 56 53 51 49 49 46 41 40 37 33 35 33 35 34 30 24 25 19 21 18 16 16 19 17 16 15 13 13 10 9 5 4 2 5 
101 100 100 96 93 88 90 90 86 85 91 91 88 91 86 86 82 84 85 81 77 78 77 79 80 75 75 73 65 63 63 64 61 63 61 63 71 66 68 64 61 60 60 63 61 59 55 50 49 51 47 46 39 39 40 36 33 28 28 27 23 21 19 16 13 20 20 15 16 20 18 17 15 15 10 10 7 3 1 2 
103 97 100 97 96 94 94 93 88 90 93 92 91 92 86 85 84 84 87 75 74 75 75 78 77 78 78 74 68 65 60 57 61 62 65 68 70 68 70 67 65 63 62 61 56 57 53 53 50 50 49 43 39 40 38 33 31 28 26 26 23 22 20 18 18 17 19 20 21 20 24 18 18 15 14 14 7 6 4 5 
105 101 101 101 99 97 96 91 90 92 93 92 92 90 83 85 78 85 82 81 82 75 74 78 75 76 76 73 68 67 64 61 62 63 65 68 68 65 65 65 63 63 62 64 57 54 49 52 52 49 47 43 37 38 34 36 28 28 26 27 22 23 21 20 17 20 24 26 23 19 23 18 17 18 19 16 12 11 3 7 
104 101 102 97 99 98 98 88 88 90 91 91 92 87 84 85 79 82 79 81 80 76 75 75 73 75 78 71 69 66 63 61 63 63 62 65 68 65 63 64 62 61 60 58 53 57 54 51 43 46 47 39 35 38 31 33 31 29 26 23 27 24 25 23 27 29 27 29 29 25 25 22 18 17 23 13 13 7 6 4 
99 97 100 98 97 101 102 93 88 90 88 88 87 87 84 83 75 81 82 77 83 78 75 73 73 70 74 70 68 63 59 64 61 60 61 65 65 60 61 64 60 61 61 54 54 54 49 48 43 39 41 32 29 29 32 34 30 28 27 25 22 24 26 27 32 30 28 29 28 28 25 20 20 22 21 22 16 14 7 10 
98 96 98 97 92 98 97 86 85 85 87 91 86 88 82 84 78 83 81 81 76 74 72 71 69 73 74 70 63 65 62 59 62 63 61 63 65 61 60 59 60 60 59 54 51 50 47 41 41 39 38 35 29 33 31 33 33 30 32 29 30 26 33 31 36 32 34 33 31 30 32 25 25 21 24 21 17 12 7 9 
102 98 96 97 97 98 98 86 86 87 88 86 87 85 83 80 79 81 82 80 79 78 76 75 72 76 72 71 64 62 61 59 61 60 63 65 66 58 61 61 59 58 58 55 53 50 46 42 40 43 40 36 31 33 37 34 39 32 34 30 33 36 33 36 34 35 35 35 37 32 39 33 28 26 19 22 19 13 11 5 
99 95 101 98 94 96 99 91 88 87 86 86 81 85 85 84 76 77 78 79 76 77 75 73 73 76 71 66 62 60 60 60 63 63 64 61 60 58 60 58 62 56 58 53 54 48 40 41 40 42 40 39 34 38 39 46 41 36 38 39 33 35 37 36 36 34 37 37 37 39 39 31 32 30 24 22 21 16 11 11 
101 98 101 97 95 97 96 86 88 85 84 83 83 87 80 87 83 78 81 76 77 76 77 79 77 76 71 68 62 60 59 59 61 64 61 62 69 57 61 60 58 56 56 54 52 43 43 41 44 46 40 38 36 43 46 46 45 45 40 40 37 39 36 35 37 38 39 34 38 36 39 33 30 29 25 26 21 17 10 7 
96 94 96 97 93 91 90 86 86 85 80 81 81 81 81 83 77 76 74 75 73 76 74 81 74 74 69 66 59 63 61 58 60 64 62 60 61 59 62 58 60 55 54 51 48 39 42 42 47 43 41 39 37 44 46 50 46 42 41 39 35 36 34 36 37 37 37 39 38 36 34 32 33 30 25 25 19 15 7 12 
98 94 98 95 92 91 90 83 87 88 80 83 82 80 77 80 79 77 79 75 74 75 77 76 74 72 67 66 61 61 59 63 62 62 58 59 62 56 61 60 56 55 51 52 46 41 43 43 45 44 48 42 42 42 46 48 49 47 45 42 33 37 37 35 37 35 40 37 39 36 35 32 29 28 28 23 17 20 11 14 
93 93 98 93 90 91 86 84 90 81 79 81 81 80 71 76 76 74 75 72 72 73 74 74 72 73 70 62 61 61 61 61 64 62 58 56 55 54 57 57 51 48 48 47 47 43 44 45 50 48 46 45 43 51 48 48 47 43 43 44 38 39 40 39 36 41 40 40 40 36 38 35 32 27 27 23 21 17 11 16 
94 94 94 91 88 89 89 88 85 80 77 81 77 79 71 76 75 74 75 73 74 73 72 73 71 69 69 60 59 62 61 61 60 62 56 58 53 51 55 57 48 49 48 47 48 44 48 51 53 50 50 46 45 54 52 49 46 48 44 45 39 38 42 34 37 42 41 39 38 40 35 33 34 29 26 29 22 15 11 10 
91 91 92 91 88 87 88 85 81 78 77 80 80 79 76 77 72 78 77 73 74 74 73 76 72 68 65 63 61 60 62 62 64 63 59 59 58 49 52 50 49 51 46 44 45 53 52 51 54 51 50 47 47 54 51 46 45 47 44 43 44 41 42 39 36 36 38 36 37 38 36 35 33 33 31 26 24 18 11 13 
91 89 90 91 87 88 86 83 83 80 79 80 76 80 77 76 71 75 74 73 70 75 74 75 70 69 61 60 60 59 62 60 59 62 57 58 59 53 55 60 57 55 56 48 50 54 55 55 56 52 50 50 48 49 48 48 49 47 48 43 40 39 43 35 36 38 37 35 40 38 39 34 32 32 30 28 29 14 9 7 
92 88 90 88 90 87 86 84 80 79 79 77 79 76 79 80 79 81 77 73 74 78 76 75 73 68 63 58 61 62 65 65 66 66 62 62 62 58 59 58 56 59 59 52 54 58 56 57 53 55 54 51 48 50 47 49 48 46 45 43 43 43 40 35 33 36 34 36 40 39 37 37 30 31 26 27 24 16 3 6 
88 91 87 89 86 87 85 81 79 79 78 74 77 75 74 78 74 77 73 70 77 74 74 73 71 68 64 63 59 63 66 65 66 67 65 64 62 58 61 56 57 62 61 57 58 59 59 57 52 52 50 51 47 50 48 50 47 49 44 46 43 43 43 38 31 32 33 34 41 39 41 33 31 28 24 21 19 8 6 7 
92 85 84 86 84 83 82 83 80 82 77 75 74 77 74 78 75 77 72 70 74 72 74 71 69 68 63 65 63 67 70 69 68 70 67 64 67 61 62 61 58 63 59 56 58 57 60 61 56 53 52 53 45 50 51 50 43 46 43 46 44 43 43 41 33 32 33 34 36 35 36 34 30 26 24 19 16 8 3 4 
91 89 84 83 84 82 84 85 81 83 80 79 72 75 74 73 74 75 72 72 70 72 72 73 68 68 66 64 64 67 70 68 73 70 66 69 66 63 62 59 62 63 57 55 59 57 57 58 52 52 55 50 47 48 48 48 43 47 43 44 45 47 48 44 42 40 34 35 35 35 32 30 25 23 20 19 15 7 1 1 
89 85 88 86 83 85 85 83 79 81 79 77 77 75 82 76 73 74 72 71 71 73 69 73 70 67 67 63 65 70 72 70 74 73 68 70 70 60 63 59 61 63 58 58 57 57 58 59 56 53 51 47 47 47 50 50 45 47 49 48 49 50 48 41 43 38 35 32 29 27 29 29 25 23 21 19 15 7 2 4 
92 87 87 85 87 86 83 78 81 81 79 75 79 79 77 76 76 74 73 73 74 74 73 76 69 69 68 71 66 71 72 73 74 72 72 70 69 62 65 61 61 62 59 56 56 58 58 58 53 54 52 50 45 49 47 49 48 49 47 48 46 47 46 43 40 37 35 31 33 30 30 28 22 23 21 19 13 8 2 5 
94 87 88 83 85 82 82 80 82 79 78 74 74 78 77 80 75 72 71 71 75 77 73 75 72 69 69 67 70 75 73 74 71 77 71 68 65 64 62 63 60 59 58 58 58 56 55 58 53 52 55 52 49 52 53 52 52 49 51 49 47 48 43 43 36 36 36 32 31 26 30 26 23 20 19 21 13 7 6 2 
90 88 86 86 86 86 80 78 73 74 74 75 78 78 75 79 74 71 69 72 78 73 77 80 74 72 69 72 73 74 74 73 71 79 70 68 65 62 62 61 57 56 56 52 54 58 56 58 49 53 52 51 50 54 53 55 51 49 48 46 44 43 34 37 35 32 34 31 29 32 30 30 25 25 25 21 18 11 7 8 
86 86 86 81 83 81 77 75 76 73 75 74 78 77 75 76 74 73 70 73 79 78 78 81 77 76 72 72 71 75 74 75 74 78 71 68 66 59 62 60 58 58 57 54 56 53 56 58 59 59 54 49 48 54 54 55 52 47 48 48 47 43 40 36 32 32 32 30 36 31 31 28 27 27 25 22 21 10 7 8 
81 83 80 85 80 76 76 77 76 75 74 74 77 79 79 76 74 78 74 79 78 79 79 81 80 73 75 73 74 74 77 80 80 78 72 66 67 60 61 62 61 59 58 56 56 56 59 61 56 61 58 55 55 56 54 56 50 46 45 43 42 44 42 39 36 32 34 29 33 32 30 31 30 27 25 25 20 14 11 11 
83 82 82 80 82 77 77 78 73 75 74 72 78 78 75 74 75 77 77 77 81 81 81 82 78 77 78 77 80 80 81 79 81 79 71 69 67 63 62 63 66 58 57 58 62 62 60 65 59 64 61 56 57 54 58 55 51 48 45 47 47 46 46 39 37 35 33 34 35 33 31 34 28 29 26 25 22 12 12 10 
82 79 83 80 81 80 80 77 74 76 74 72 77 81 74 80 76 77 80 77 83 82 81 82 79 77 85 85 81 79 85 83 84 85 79 78 76 68 70 67 66 64 68 64 67 63 64 61 64 65 63 57 58 60 55 54 51 49 49 45 47 45 44 43 36 37 36 37 37 31 33 32 34 27 24 26 27 17 12 15 
85 79 81 76 81 75 77 79 76 75 77 78 79 77 78 80 78 78 76 83 84 81 78 81 78 82 85 83 79 82 82 83 86 88 82 83 82 72 70 73 72 75 69 72 70 69 66 69 69 70 69 64 57 61 57 55 53 47 46 47 49 43 44 43 44 38 40 35 35 31 32 35 30 26 28 23 24 19 12 11 
84 80 78 79 78 82 82 74 78 76 75 79 82 81 81 81 83 81 76 80 85 83 80 81 78 81 86 84 85 86 87 87 87 87 88 85 88 77 79 80 75 79 71 72 72 72 71 71 75 72 73 65 61 61 56 58 57 53 49 49 46 46 46 40 44 39 38 38 36 33 34 31 30 27 27 33 26 15 14 15 
85 82 82 81 80 83 80 79 80 77 76 80 82 81 80 81 79 81 79 78 84 86 80 82 82 85 84 83 83 86 87 89 87 88 90 90 88 79 83 83 80 82 78 79 79 76 73 75 74 73 73 68 60 62 61 59 58 54 50 51 48 47 47 44 44 42 43 39 40 36 34 36 30 32 31 26 25 16 13 10 
86 85 84 81 82 80 82 79 78 79 80 85 85 87 81 78 80 80 82 82 88 87 84 84 83 85 87 84 85 89 91 90 90 93 91 89 89 86 85 86 82 84 81 80 79 79 79 77 74 72 74 70 66 64 63 62 59 57 54 55 50 52 50 51 47 45 45 42 45 40 39 36 34 31 34 31 26 19 14 11 
95 90 87 85 85 81 82 81 85 81 81 81 85 90 83 81 83 81 81 82 88 86 86 86 84 83 85 84 85 91 89 92 91 95 91 93 89 87 88 89 85 85 84 79 79 79 83 77 77 73 73 72 70 70 67 62 63 59 59 56 57 54 53 52 50 44 47 47 46 44 42 41 37 34 35 32 27 16 14 14 
99 100 92 86 83 82 85 80 83 79 83 79 84 87 83 82 83 83 83 86 91 86 82 81 84 85 85 86 85 88 91 90 91 95 93 92 90 88 90 85 87 82 83 80 81 83 83 84 81 78 77 75 71 72 69 63 68 59 60 61 57 58 51 49 43 41 51 46 49 46 44 42 38 36 33 29 27 23 18 16 


